<svg width="51" height="50" viewBox="0 0 51 50" fill="none" xmlns="http://www.w3.org/2000/svg">
  <ellipse opacity="0.5" cx="25.3571" cy="38.3267" rx="17.9396" ry="10.6333" fill="#5C73BC" />
  <path
    d="M9.68365 38.9366C11.9642 41.3418 16.7411 45.6982 25.331 45.6982C33.9209 45.6982 38.6978 41.3418 40.9784 38.9366C41.6888 38.1874 42.4729 37.1859 43.2447 36.0225C39.1784 39.8752 32.6684 42.3712 25.331 42.3712C17.9937 42.3712 11.4836 39.8752 7.41736 36.0225C8.18911 37.1859 8.97326 38.1874 9.68365 38.9366Z"
    fill="#4159A5" stroke="black" stroke-width="1.04376" />
  <path
    d="M25.2917 38.5205C37.6134 38.5205 47.6021 31.4817 47.6021 22.7988V24.0383C47.6021 25.6644 47.3011 27.237 46.7392 28.7258C45.9317 31.3307 44.5884 33.9357 43.2054 36.0206C39.1391 39.8734 32.6291 42.3694 25.2917 42.3694C17.9544 42.3694 11.4443 39.8734 7.37807 36.0206C5.99502 33.9357 4.65179 31.3307 3.84428 28.7258C3.28232 27.237 2.98132 25.6644 2.98132 24.0383V22.7988C2.98132 31.4817 12.97 38.5205 25.2917 38.5205Z"
    fill="#5C73BC" stroke="black" stroke-width="1.04376" />
  <path
    d="M25.292 38.5224C37.6137 38.5224 47.6024 31.4836 47.6024 22.8008C47.6024 14.1179 37.6137 7.0791 25.292 7.0791C12.9703 7.0791 2.98157 14.1179 2.98157 22.8008C2.98157 31.4836 12.9703 38.5224 25.292 38.5224Z"
    fill="#FF4E61" stroke="black" stroke-width="1.04376" />
  <path
    d="M25.2908 13.2109C36.6009 13.2109 45.7836 20.1863 45.9039 28.826C42.549 34.5188 34.5834 38.5222 25.2908 38.5222C15.9983 38.5222 8.03265 34.5188 4.67773 28.826C4.79805 20.1863 13.9808 13.2109 25.2908 13.2109Z"
    fill="#F4A58C" stroke="black" stroke-width="1.04376" />
  <path
    d="M46.1291 28.6273L46.1221 28.6457L46.1163 28.6645C44.8802 32.652 42.6256 36.6152 40.7269 38.6178C38.4812 40.9862 34.0184 45.5672 25.292 45.5672C16.5656 45.5672 12.1027 40.9862 9.85704 38.6178C7.95829 36.6152 5.70378 32.652 4.46762 28.6645L4.46179 28.6457L4.45484 28.6273C3.91962 27.2093 3.63392 25.7146 3.63392 24.1701V22.9307C3.63392 18.8586 5.97524 15.107 9.8919 12.347C13.8068 9.58827 19.2495 7.86134 25.292 7.86134C31.3344 7.86134 36.7771 9.58827 40.692 12.347C44.6087 15.107 46.95 18.8586 46.95 22.9307V24.1701C46.95 25.7146 46.6643 27.2093 46.1291 28.6273Z"
    stroke="black" stroke-width="1.3047" />
  <path
    d="M37.095 14.6988L35.2561 12.8183C33.8605 11.8709 30.9546 11.6854 28.7533 12.9137C28.2813 12.4345 26.9118 11.8364 25.2124 11.8364C10.8742 11.8364 6.57908 26.0413 8.70381 32.3498L40.2126 32.1695C44.107 28.7449 41.4517 20.5687 37.0266 18.6205C37.3744 17.3575 37.4918 15.9558 37.095 14.6988Z"
    fill="white" />
  <path
    d="M35.2561 12.8183L37.095 14.6988L41.4517 10.1147C42.1598 10.8357 43.93 11.9171 45.3461 10.4752C47.1163 8.67278 45.1691 5.789 43.0449 6.32965C43.3989 4.5273 41.2747 1.82362 38.9735 4.16672C37.6429 5.52152 38.5014 7.65142 39.5045 8.13207L35.2561 12.8183Z"
    fill="white" />
  <path
    d="M22.3807 20.3078C23.1766 17.3703 25.9291 14.4897 28.7533 12.9137M35.2561 12.8183L37.095 14.6988M35.2561 12.8183C33.8605 11.8709 30.9546 11.6854 28.7533 12.9137M35.2561 12.8183L39.5045 8.13207C38.5014 7.65142 37.6429 5.52152 38.9735 4.16672C41.2747 1.82362 43.3989 4.5273 43.0449 6.32965C45.1691 5.789 47.1163 8.67278 45.3461 10.4752C43.93 11.9171 42.1598 10.8357 41.4517 10.1147L37.095 14.6988M37.095 14.6988C37.4918 15.9558 37.3744 17.3575 37.0266 18.6205M29.7689 26.8771C32.2147 25.9026 35.9782 22.4279 37.0266 18.6205M28.7533 12.9137C28.2813 12.4345 26.9118 11.8364 25.2124 11.8364C10.8742 11.8364 6.57908 26.0413 8.70381 32.3498L40.2126 32.1695C44.107 28.7449 41.4517 20.5687 37.0266 18.6205"
    stroke="black" stroke-width="1.3047" stroke-linecap="round" stroke-linejoin="round" stroke-dasharray="6.52 2.61" />
  <path
    d="M44.6017 30.7601L43.6121 29.749C42.5049 28.6177 40.6871 28.6079 39.5678 29.7272C38.4569 30.8381 36.6504 30.8327 35.5395 29.7218C34.4226 28.6049 32.6064 28.5995 31.4895 29.7164C30.3726 30.8332 28.5618 30.8332 27.4449 29.7164C26.328 28.5995 24.5172 28.5995 23.4003 29.7164C22.2835 30.8332 20.4726 30.8332 19.3558 29.7164C18.2389 28.5995 16.4281 28.5995 15.3112 29.7164C14.1943 30.8332 12.367 30.8168 11.2502 29.6999C10.1411 28.5908 8.33581 28.5458 7.19153 29.6186L6.11304 30.6296C6.62064 31.2225 7.17012 31.7838 7.75672 32.313C8.34952 32.8477 8.98022 33.3496 9.64391 33.818C17.8651 39.6203 31.147 40.2835 40.1309 34.5741C40.8156 34.139 41.4754 33.6668 42.106 33.1571C43.0004 32.4342 43.8363 31.6357 44.6017 30.7601Z"
    fill="#F4A58C" />
  <path
    d="M40.1309 34.5741C40.8156 34.139 41.4754 33.6668 42.106 33.1571C43.0004 32.4342 43.8363 31.6357 44.6017 30.7601L43.6121 29.749C42.5049 28.6177 40.6871 28.6079 39.5678 29.7272V29.7272C38.4569 30.8381 36.6504 30.8327 35.5395 29.7218V29.7218C34.4226 28.6049 32.6064 28.5995 31.4895 29.7164V29.7164C30.3726 30.8332 28.5618 30.8332 27.4449 29.7164V29.7164C26.328 28.5995 24.5172 28.5995 23.4003 29.7164V29.7164C22.2835 30.8332 20.4726 30.8332 19.3558 29.7164V29.7164C18.2389 28.5995 16.4281 28.5995 15.3112 29.7164V29.7164C14.1943 30.8332 12.367 30.8168 11.2502 29.6999V29.6999C10.1411 28.5908 8.33581 28.5458 7.19153 29.6186L6.11304 30.6296C6.62064 31.2225 7.17012 31.7838 7.75672 32.313C8.34952 32.8477 8.98022 33.3496 9.64391 33.818M40.1309 34.5741V34.5741C39.6758 34.1191 38.9959 33.9736 38.3945 34.2028L38.0282 34.3423C37.1885 34.6622 36.2388 34.4489 35.6165 33.8006L35.3727 33.5467C34.3359 32.4667 32.6286 32.4059 31.5176 33.4094L31.4173 33.4999C30.3097 34.5004 28.6247 34.5004 27.5171 33.4999L27.434 33.4249C26.2916 32.3931 24.5428 32.4029 23.4003 33.4348V33.4348C22.2579 34.4666 20.5091 34.4765 19.3666 33.4446L19.2591 33.3475C18.1534 32.3487 16.4823 32.3126 15.3345 33.2626L14.8367 33.6745C14.0666 34.3119 12.9769 34.3907 12.1229 33.8709L11.6424 33.5784C11.0007 33.1878 10.1751 33.2868 9.64391 33.818V33.818M40.1309 34.5741C31.147 40.2835 17.8651 39.6203 9.64391 33.818"
    stroke="black" stroke-width="1.3047" stroke-linecap="round" stroke-linejoin="round" />
</svg>