<svg width="171" height="38" viewBox="0 0 171 38" fill="none" xmlns="http://www.w3.org/2000/svg">
<ellipse opacity="0.5" cx="18.3972" cy="28.595" rx="12.9166" ry="7.656" fill="#5C73BC"/>
<path d="M7.11226 29.0357C8.75428 30.7675 12.1936 33.904 18.3784 33.904C24.5631 33.904 28.0025 30.7675 29.6445 29.0357C30.156 28.4963 30.7206 27.7752 31.2762 26.9375C28.3485 29.7115 23.6613 31.5086 18.3784 31.5086C13.0955 31.5086 8.40822 29.7115 5.48053 26.9375C6.03619 27.7752 6.60078 28.4963 7.11226 29.0357Z" fill="#4159A5" stroke="black" stroke-width="0.751509"/>
<path d="M18.3502 28.7356C27.2218 28.7356 34.4137 23.6677 34.4137 17.416V18.3084C34.4137 19.4792 34.197 20.6115 33.7924 21.6834C33.211 23.5589 32.2438 25.4345 31.248 26.9357C28.3203 29.7097 23.6331 31.5068 18.3502 31.5068C13.0673 31.5068 8.38005 29.7097 5.45235 26.9357C4.45656 25.4345 3.48944 23.5589 2.90803 21.6834C2.50342 20.6115 2.2867 19.4792 2.2867 18.3084V17.416C2.2867 23.6677 9.47857 28.7356 18.3502 28.7356Z" fill="#5C73BC" stroke="black" stroke-width="0.751509"/>
<path d="M18.3502 28.7364C27.2218 28.7364 34.4137 23.6684 34.4137 17.4168C34.4137 11.1651 27.2218 6.09717 18.3502 6.09717C9.47857 6.09717 2.2867 11.1651 2.2867 17.4168C2.2867 23.6684 9.47857 28.7364 18.3502 28.7364Z" fill="#FF4E61" stroke="black" stroke-width="0.751509"/>
<path d="M18.3494 10.5127C26.4927 10.5127 33.1043 15.535 33.1909 21.7555C30.7753 25.8543 25.0401 28.7368 18.3494 28.7368C11.6588 28.7368 5.92355 25.8543 3.50801 21.7555C3.59463 15.535 10.2062 10.5127 18.3494 10.5127Z" fill="#F4A58C" stroke="black" stroke-width="0.751509"/>
<path d="M3.35666 21.6389L3.35246 21.6253L3.34746 21.6121C2.96209 20.5912 2.75639 19.5149 2.75639 18.4029V17.5105C2.75639 14.5786 4.44214 11.8775 7.26214 9.89029C10.0809 7.904 13.9996 6.66061 18.3502 6.66061C22.7008 6.66061 26.6195 7.904 29.4383 9.89029C32.2583 11.8775 33.944 14.5786 33.944 17.5105V18.4029C33.944 19.5149 33.7383 20.5912 33.3529 21.6121L33.3479 21.6253L33.3437 21.6389C32.4537 24.5099 30.8305 27.3634 29.4634 28.8052C27.8465 30.5105 24.6332 33.8089 18.3502 33.8089C12.0672 33.8089 8.85393 30.5105 7.23704 28.8052C5.86994 27.3634 4.24669 24.5099 3.35666 21.6389Z" stroke="black" stroke-width="0.939386"/>
<path d="M26.8484 11.5833L25.5244 10.2294C24.5195 9.54732 22.4273 9.4137 20.8424 10.2981C20.5025 9.95304 19.5165 9.52246 18.2929 9.52246C7.96943 9.52246 4.87692 19.75 6.40672 24.2921L29.0931 24.1623C31.897 21.6966 29.9852 15.8097 26.7992 14.407C27.0496 13.4977 27.1341 12.4884 26.8484 11.5833Z" fill="white"/>
<path d="M25.5244 10.2294L26.8484 11.5833L29.9852 8.28283C30.4951 8.80192 31.7696 9.58056 32.7892 8.54237C34.0637 7.24464 32.6618 5.16831 31.1323 5.55758C31.3872 4.25989 29.8578 2.31324 28.2009 4.00028C27.2429 4.97573 27.861 6.50926 28.5833 6.85533L25.5244 10.2294Z" fill="white"/>
<path d="M16.2541 15.6218C16.8271 13.5068 18.809 11.4328 20.8424 10.2981M25.5244 10.2294L26.8484 11.5833M25.5244 10.2294C24.5195 9.54732 22.4273 9.4137 20.8424 10.2981M25.5244 10.2294L28.5833 6.85533C27.861 6.50926 27.2429 4.97573 28.2009 4.00028C29.8578 2.31324 31.3872 4.25989 31.1323 5.55758C32.6618 5.16831 34.0637 7.24464 32.7892 8.54237C31.7696 9.58056 30.4951 8.80192 29.9852 8.28283L26.8484 11.5833M26.8484 11.5833C27.1341 12.4884 27.0496 13.4977 26.7992 14.407M21.5736 20.3518C23.3346 19.6501 26.0443 17.1483 26.7992 14.407M20.8424 10.2981C20.5025 9.95304 19.5165 9.52246 18.2929 9.52246C7.96943 9.52246 4.87692 19.75 6.40672 24.2921L29.0931 24.1623C31.897 21.6966 29.9852 15.8097 26.7992 14.407" stroke="black" stroke-width="0.939386" stroke-linecap="round" stroke-linejoin="round" stroke-dasharray="4.7 1.88"/>
<path d="M32.2533 23.1469L31.5408 22.4189C30.7436 21.6044 29.4348 21.5973 28.6288 22.4032C27.829 23.2031 26.5283 23.1992 25.7285 22.3993C24.9243 21.5952 23.6166 21.5913 22.8125 22.3954C22.0083 23.1996 20.7045 23.1996 19.9004 22.3954C19.0962 21.5913 17.7924 21.5913 16.9883 22.3954C16.1841 23.1996 14.8803 23.1996 14.0762 22.3954C13.272 21.5913 11.9682 21.5913 11.1641 22.3954C10.3599 23.1996 9.0443 23.1877 8.24015 22.3836C7.4416 21.585 6.14181 21.5526 5.31792 22.325L4.54141 23.053C4.90688 23.4798 5.30251 23.884 5.72487 24.265C6.15168 24.65 6.60579 25.0113 7.08364 25.3486C13.0029 29.5262 22.5659 30.0037 29.0343 25.893C29.5273 25.5797 30.0023 25.2397 30.4564 24.8727C31.1004 24.3522 31.7022 23.7773 32.2533 23.1469Z" fill="#F4A58C"/>
<path d="M29.0343 25.893C29.5273 25.5797 30.0023 25.2397 30.4564 24.8727C31.1004 24.3522 31.7022 23.7773 32.2533 23.1469L31.5408 22.4189C30.7436 21.6044 29.4348 21.5973 28.6288 22.4032V22.4032C27.829 23.2031 26.5283 23.1992 25.7285 22.3993V22.3993C24.9243 21.5952 23.6166 21.5913 22.8125 22.3954V22.3954C22.0083 23.1996 20.7045 23.1996 19.9004 22.3954V22.3954C19.0962 21.5913 17.7924 21.5913 16.9883 22.3954V22.3954C16.1841 23.1996 14.8803 23.1996 14.0762 22.3954V22.3954C13.272 21.5913 11.9682 21.5913 11.1641 22.3954V22.3954C10.3599 23.1996 9.0443 23.1877 8.24015 22.3836V22.3836C7.4416 21.585 6.14181 21.5526 5.31792 22.325L4.54141 23.053C4.90688 23.4798 5.30251 23.884 5.72487 24.265C6.15168 24.65 6.60579 25.0113 7.08364 25.3486M29.0343 25.893V25.893C28.7066 25.5654 28.2171 25.4606 27.7841 25.6256L27.5204 25.7261C26.9158 25.9564 26.232 25.8028 25.7839 25.3361L25.6084 25.1532C24.8619 24.3756 23.6327 24.3319 22.8327 25.0544L22.7605 25.1196C21.963 25.8399 20.7498 25.8399 19.9523 25.1196L19.8925 25.0656C19.07 24.3226 17.8108 24.3297 16.9883 25.0727V25.0727C16.1657 25.8156 14.9066 25.8227 14.084 25.0797L14.0066 25.0098C13.2105 24.2907 12.0073 24.2647 11.1808 24.9487L10.8225 25.2452C10.2679 25.7042 9.48341 25.761 8.86855 25.3867L8.52257 25.1761C8.06055 24.8949 7.46611 24.9661 7.08364 25.3486V25.3486M29.0343 25.893C22.5659 30.0037 13.0029 29.5262 7.08364 25.3486" stroke="black" stroke-width="0.939386" stroke-linecap="round" stroke-linejoin="round"/>
<path d="M60.8027 27.0293C60.8848 26.2454 60.985 25.3385 61.1035 24.3086C61.222 23.2786 61.3496 22.2031 61.4863 21.082C61.623 19.9518 61.7598 18.8171 61.8965 17.6777C62.0423 16.5384 62.1836 15.472 62.3203 14.4785C61.8372 15.4082 61.3496 16.3424 60.8574 17.2812C60.3652 18.2201 59.8958 19.1133 59.4492 19.9609C59.0117 20.7995 58.6061 21.5605 58.2324 22.2441C57.8678 22.9277 57.5716 23.4792 57.3438 23.8984C57.1341 24.181 56.9245 24.4499 56.7148 24.7051C56.5052 24.9603 56.2956 25.1836 56.0859 25.375C55.8854 25.5664 55.6849 25.7214 55.4844 25.8398C55.2839 25.9492 55.0879 26.0039 54.8965 26.0039C54.6413 26.0039 54.4362 25.9492 54.2812 25.8398C54.1354 25.7305 54.0625 25.5664 54.0625 25.3477C54.0625 25.3021 54.0625 25.2611 54.0625 25.2246C54.0716 25.179 54.0853 25.1335 54.1035 25.0879C54.0488 23.7936 54.0078 22.4902 53.9805 21.1777C53.9531 19.8561 53.9395 18.5573 53.9395 17.2812C53.9395 16.9805 53.9395 16.6797 53.9395 16.3789C53.9395 16.0781 53.944 15.7819 53.9531 15.4902C53.5885 16.3105 53.1921 17.1628 52.7637 18.0469C52.3353 18.931 51.8887 19.806 51.4238 20.6719C50.959 21.5286 50.4805 22.3581 49.9883 23.1602C49.4961 23.9531 49.0039 24.6777 48.5117 25.334C48.0195 25.9811 47.5319 26.5371 47.0488 27.002C46.5749 27.4577 46.1191 27.7767 45.6816 27.959C45.2988 28.1139 44.9661 28.2233 44.6836 28.2871C44.401 28.36 44.1504 28.3965 43.9316 28.3965C43.6035 28.3965 43.3574 28.3281 43.1934 28.1914C43.0384 28.0638 42.9609 27.9043 42.9609 27.7129C42.9609 27.485 43.0566 27.248 43.248 27.002C43.4395 26.7559 43.7083 26.5645 44.0547 26.4277C44.474 26.2637 44.9297 25.9036 45.4219 25.3477C45.9232 24.7826 46.4382 24.099 46.9668 23.2969C47.4954 22.4948 48.0286 21.6016 48.5664 20.6172C49.1042 19.6328 49.6237 18.6348 50.125 17.623C50.6354 16.6113 51.1139 15.6224 51.5605 14.6562C52.0072 13.681 52.4036 12.8014 52.75 12.0176C53.0964 11.2337 53.3789 10.582 53.5977 10.0625C53.8255 9.53385 53.9668 9.20573 54.0215 9.07812C54.1491 8.79557 54.3268 8.59049 54.5547 8.46289C54.7826 8.33529 55.015 8.27148 55.252 8.27148C55.5801 8.27148 55.8079 8.36263 55.9355 8.54492C56.0632 8.7181 56.127 9.03255 56.127 9.48828C56.1999 10.0625 56.2591 10.6048 56.3047 11.1152C56.3594 11.6165 56.4049 12.1361 56.4414 12.6738C56.4779 13.2025 56.5007 13.7767 56.5098 14.3965C56.528 15.0072 56.5371 15.7135 56.5371 16.5156C56.5371 17.0898 56.5234 17.7233 56.4961 18.416C56.4779 19.1087 56.4688 19.8835 56.4688 20.7402C57.5625 18.7533 58.5286 17.0033 59.3672 15.4902C60.2148 13.9681 60.9486 12.6966 61.5684 11.6758C62.1973 10.6458 62.7259 9.87109 63.1543 9.35156C63.5827 8.82292 63.9245 8.55859 64.1797 8.55859H64.2754C64.3027 8.55859 64.3301 8.55859 64.3574 8.55859C64.3848 8.54948 64.4121 8.54492 64.4395 8.54492C64.6582 8.54492 64.8314 8.68164 64.959 8.95508C65.0866 9.22852 65.1504 9.58398 65.1504 10.0215C65.1139 10.4681 65.0592 11.0241 64.9863 11.6895C64.9134 12.3548 64.8268 13.0885 64.7266 13.8906C64.6354 14.6836 64.5352 15.5221 64.4258 16.4062C64.3164 17.2904 64.207 18.1699 64.0977 19.0449C63.9883 19.9108 63.8835 20.7539 63.7832 21.5742C63.6921 22.3945 63.6146 23.1374 63.5508 23.8027C63.5326 23.9212 63.5234 24.0443 63.5234 24.1719C63.5234 24.2904 63.5234 24.4134 63.5234 24.541C63.5234 24.778 63.528 25.0195 63.5371 25.2656C63.5462 25.5026 63.5508 25.7396 63.5508 25.9766C63.5508 26.25 63.5371 26.528 63.5098 26.8105C63.4824 27.084 63.4049 27.3346 63.2773 27.5625C63.1589 27.7812 62.9674 27.959 62.7031 28.0957C62.4388 28.2415 62.0742 28.3145 61.6094 28.3145C61.3633 28.3145 61.1673 28.2188 61.0215 28.0273C60.8757 27.8451 60.8027 27.5124 60.8027 27.0293ZM72.082 20.4668C71.6536 20.4668 71.2389 20.5762 70.8379 20.7949C70.446 21.0046 70.0951 21.2871 69.7852 21.6426C69.4844 21.9889 69.2428 22.3854 69.0605 22.832C68.8783 23.2695 68.7871 23.7207 68.7871 24.1855C68.7871 24.3587 68.8008 24.5501 68.8281 24.7598C68.8555 24.9603 68.9102 25.1517 68.9922 25.334C69.0833 25.5072 69.2109 25.653 69.375 25.7715C69.5391 25.89 69.7578 25.9492 70.0312 25.9492C70.4505 25.9492 70.8561 25.8398 71.248 25.6211C71.6491 25.3932 72.0046 25.1016 72.3145 24.7461C72.6243 24.3815 72.8704 23.9714 73.0527 23.5156C73.235 23.0599 73.3262 22.5996 73.3262 22.1348C73.3262 21.9525 73.3125 21.7656 73.2852 21.5742C73.2669 21.3737 73.2122 21.1914 73.1211 21.0273C73.0391 20.8633 72.916 20.7311 72.752 20.6309C72.5879 20.5215 72.3646 20.4668 72.082 20.4668ZM72.793 18.0605C73.1393 18.0605 73.5085 18.1061 73.9004 18.1973C74.3014 18.2884 74.6706 18.4434 75.0078 18.6621C75.3451 18.8809 75.623 19.1725 75.8418 19.5371C76.0697 19.8926 76.1836 20.3346 76.1836 20.8633C76.1836 21.1367 76.1471 21.4512 76.0742 21.8066C76.0013 22.153 75.8919 22.5176 75.7461 22.9004C75.8372 23.0098 75.9421 23.0872 76.0605 23.1328C76.179 23.1784 76.3066 23.2012 76.4434 23.2012C76.6348 23.2012 76.8444 23.1465 77.0723 23.0371C77.3092 22.9277 77.5508 22.7865 77.7969 22.6133C78.043 22.4401 78.2891 22.2441 78.5352 22.0254C78.7812 21.8066 79.0137 21.5879 79.2324 21.3691C79.4512 21.1504 79.6471 20.9453 79.8203 20.7539C80.0026 20.5534 80.153 20.3848 80.2715 20.248C80.3353 20.1842 80.4128 20.1523 80.5039 20.1523C80.6315 20.1523 80.7454 20.2207 80.8457 20.3574C80.946 20.485 80.9961 20.6673 80.9961 20.9043C80.9961 21.1413 80.9232 21.4147 80.7773 21.7246C80.6406 22.0345 80.3809 22.3581 79.998 22.6953C79.7793 22.9323 79.5286 23.2057 79.2461 23.5156C78.9635 23.8255 78.6628 24.1172 78.3438 24.3906C78.0247 24.6641 77.6921 24.8965 77.3457 25.0879C76.9993 25.2793 76.653 25.375 76.3066 25.375C76.0697 25.375 75.8372 25.3385 75.6094 25.2656C75.3906 25.1927 75.1673 25.0742 74.9395 24.9102C74.6113 25.4206 74.2376 25.8854 73.8184 26.3047C73.3991 26.724 72.9297 27.084 72.4102 27.3848C71.8997 27.6855 71.3438 27.918 70.7422 28.082C70.1497 28.2552 69.5163 28.3418 68.8418 28.3418C68.5866 28.3418 68.2904 28.2917 67.9531 28.1914C67.6159 28.0911 67.2923 27.9271 66.9824 27.6992C66.6816 27.4622 66.4264 27.1569 66.2168 26.7832C66.0072 26.4095 65.9023 25.9538 65.9023 25.416C65.9023 25.0514 65.9616 24.6139 66.0801 24.1035C66.1986 23.5931 66.3763 23.069 66.6133 22.5312C66.8594 21.9844 67.1647 21.4466 67.5293 20.918C67.903 20.3802 68.3451 19.9017 68.8555 19.4824C69.3659 19.054 69.9492 18.7122 70.6055 18.457C71.2617 18.1927 71.9909 18.0605 72.793 18.0605ZM93 24.7324C92.599 25.1882 92.1296 25.6348 91.5918 26.0723C91.0632 26.5007 90.5163 26.8835 89.9512 27.2207C89.3861 27.5579 88.8301 27.8268 88.2832 28.0273C87.7363 28.237 87.2441 28.3418 86.8066 28.3418C86.3691 28.3418 86.0137 28.2188 85.7402 27.9727C85.4668 27.7266 85.3301 27.3073 85.3301 26.7148C85.3301 26.2956 85.403 25.8079 85.5488 25.252C85.3118 25.6074 85.0156 25.9674 84.6602 26.332C84.3047 26.6966 83.8991 27.0293 83.4434 27.3301C82.9876 27.6309 82.4772 27.8724 81.9121 28.0547C81.347 28.2461 80.7318 28.3418 80.0664 28.3418C79.7656 28.3418 79.474 28.3099 79.1914 28.2461C78.918 28.1823 78.6764 28.0729 78.4668 27.918C78.2572 27.763 78.0885 27.5579 77.9609 27.3027C77.8333 27.0384 77.7695 26.7103 77.7695 26.3184C77.7695 26.3092 77.7878 26.1725 77.8242 25.9082C77.8607 25.6348 77.9746 25.2109 78.166 24.6367C78.3665 24.0534 78.6719 23.3014 79.082 22.3809C79.4922 21.4603 80.071 20.3438 80.8184 19.0312C81.0098 18.6849 81.2285 18.4388 81.4746 18.293C81.7298 18.138 82.0033 18.0605 82.2949 18.0605C82.4225 18.0605 82.5547 18.0788 82.6914 18.1152C82.8281 18.1426 82.9557 18.1927 83.0742 18.2656C83.1927 18.3294 83.2884 18.416 83.3613 18.5254C83.4342 18.6257 83.4707 18.7441 83.4707 18.8809C83.4707 18.972 83.457 19.0586 83.4297 19.1406C83.3841 19.2956 83.2839 19.5007 83.1289 19.7559C82.9831 20.002 82.8099 20.2891 82.6094 20.6172C82.4089 20.9362 82.1947 21.2826 81.9668 21.6562C81.748 22.0299 81.543 22.4173 81.3516 22.8184C81.1602 23.2194 80.9961 23.6296 80.8594 24.0488C80.7227 24.459 80.6452 24.86 80.627 25.252C80.627 25.416 80.6725 25.5664 80.7637 25.7031C80.8548 25.8398 81.0052 25.9082 81.2148 25.9082C81.8073 25.9082 82.3724 25.7441 82.9102 25.416C83.4479 25.0879 83.9447 24.6823 84.4004 24.1992C84.8561 23.707 85.2663 23.1829 85.6309 22.627C86.0046 22.0618 86.3145 21.5469 86.5605 21.082C86.7337 20.7721 86.8841 20.4395 87.0117 20.084C87.1484 19.7285 87.2943 19.4004 87.4492 19.0996C87.6042 18.7988 87.7819 18.5482 87.9824 18.3477C88.1829 18.1471 88.4336 18.0469 88.7344 18.0469C89.0625 18.0469 89.3223 18.1517 89.5137 18.3613C89.7051 18.571 89.8008 18.8216 89.8008 19.1133C89.8008 19.2773 89.737 19.5052 89.6094 19.7969C89.4909 20.0794 89.3359 20.4076 89.1445 20.7812C88.9622 21.1458 88.7617 21.5378 88.543 21.957C88.3242 22.3763 88.1191 22.8047 87.9277 23.2422C87.7454 23.6706 87.5905 24.0944 87.4629 24.5137C87.3444 24.9238 87.2852 25.3066 87.2852 25.6621C87.2852 25.9902 87.4857 26.1543 87.8867 26.1543C88.1693 26.1543 88.5202 26.0723 88.9395 25.9082C89.3587 25.7441 89.7962 25.5163 90.252 25.2246C90.7168 24.9238 91.1771 24.5729 91.6328 24.1719C92.0977 23.7708 92.5078 23.3379 92.8633 22.873L93 24.7324ZM97.4707 18.0605C97.8717 18.0605 98.2227 18.1107 98.5234 18.2109C98.8242 18.3112 99.0794 18.4206 99.2891 18.5391C99.526 18.6849 99.7357 18.8444 99.918 19.0176C100.046 18.9355 100.182 18.8581 100.328 18.7852C100.456 18.7214 100.597 18.6667 100.752 18.6211C100.907 18.5664 101.062 18.5391 101.217 18.5391C101.618 18.5391 101.928 18.6211 102.146 18.7852C102.365 18.9492 102.475 19.1452 102.475 19.373C102.475 19.4915 102.443 19.61 102.379 19.7285L99.1797 25.7852L99.4395 25.5527C100.515 24.9238 101.399 24.4316 102.092 24.0762C102.785 23.7116 103.336 23.4427 103.746 23.2695C104.156 23.0964 104.448 22.9915 104.621 22.9551C104.803 22.9095 104.917 22.8867 104.963 22.8867C105.173 22.8867 105.332 22.9688 105.441 23.1328C105.56 23.2878 105.619 23.4837 105.619 23.7207C105.619 23.985 105.542 24.2539 105.387 24.5273C105.241 24.8008 105.013 24.9967 104.703 25.1152C104.293 25.3249 103.814 25.5527 103.268 25.7988C102.721 26.0358 102.151 26.3001 101.559 26.5918C100.966 26.8835 100.369 27.2116 99.7676 27.5762C99.1751 27.9316 98.6191 28.3281 98.0996 28.7656L95.4473 33.5645C95.2285 34.084 95.028 34.5078 94.8457 34.8359C94.6725 35.1641 94.4993 35.4238 94.3262 35.6152C94.153 35.8066 93.9753 35.9388 93.793 36.0117C93.6107 36.0846 93.401 36.1211 93.1641 36.1211C92.8086 36.1211 92.526 35.998 92.3164 35.752C92.1159 35.5059 92.0156 35.2096 92.0156 34.8633C92.0156 34.4987 92.1022 34.0749 92.2754 33.5918C92.4486 33.1087 92.6901 32.5846 93 32.0195C93.319 31.4635 93.7018 30.8757 94.1484 30.2559C94.5951 29.6452 95.0918 29.0208 95.6387 28.3828L97.334 26.2227C96.9876 26.5417 96.6458 26.8151 96.3086 27.043C95.9714 27.2708 95.6478 27.4577 95.3379 27.6035C95.028 27.7402 94.7363 27.8405 94.4629 27.9043C94.1986 27.9681 93.9661 28 93.7656 28C93.401 28 93.0638 27.918 92.7539 27.7539C92.444 27.5807 92.1751 27.3438 91.9473 27.043C91.7285 26.7422 91.5553 26.3867 91.4277 25.9766C91.3001 25.5664 91.2363 25.1198 91.2363 24.6367C91.2363 23.6341 91.4277 22.7272 91.8105 21.916C92.2025 21.1048 92.6992 20.4167 93.3008 19.8516C93.9115 19.2773 94.5814 18.8353 95.3105 18.5254C96.0488 18.2155 96.7689 18.0605 97.4707 18.0605ZM96.9512 20.4668C96.5228 20.4668 96.1081 20.5762 95.707 20.7949C95.306 21.0046 94.9505 21.2871 94.6406 21.6426C94.3307 21.9889 94.0846 22.39 93.9023 22.8457C93.7201 23.3014 93.6289 23.7708 93.6289 24.2539C93.6289 24.3997 93.638 24.5592 93.6562 24.7324C93.6836 24.8965 93.7337 25.0514 93.8066 25.1973C93.8887 25.3431 94.0026 25.4661 94.1484 25.5664C94.3034 25.6576 94.513 25.7031 94.7773 25.7031C94.9688 25.7031 95.1921 25.6211 95.4473 25.457C95.7116 25.2839 95.9805 25.0697 96.2539 24.8145C96.5365 24.5501 96.8099 24.263 97.0742 23.9531C97.3385 23.6341 97.5755 23.3242 97.7852 23.0234C98.0039 22.7227 98.1771 22.4538 98.3047 22.2168C98.4323 21.9707 98.4961 21.7884 98.4961 21.6699C98.4961 21.4694 98.4414 21.2962 98.332 21.1504C98.2227 20.9954 98.0859 20.8678 97.9219 20.7676C97.7669 20.6673 97.5983 20.5944 97.416 20.5488C97.2428 20.4941 97.0879 20.4668 96.9512 20.4668ZM109.434 20.5352C109.005 20.5352 108.59 20.6445 108.189 20.8633C107.788 21.082 107.433 21.3691 107.123 21.7246C106.813 22.0801 106.567 22.4811 106.385 22.9277C106.202 23.3652 106.111 23.8073 106.111 24.2539C106.111 24.4362 106.12 24.6276 106.139 24.8281C106.166 25.0195 106.221 25.1973 106.303 25.3613C106.385 25.5254 106.499 25.6621 106.645 25.7715C106.799 25.8809 107.005 25.9355 107.26 25.9355C107.46 25.9355 107.693 25.849 107.957 25.6758C108.23 25.4935 108.508 25.2656 108.791 24.9922C109.083 24.7096 109.365 24.4043 109.639 24.0762C109.912 23.7389 110.158 23.4108 110.377 23.0918C110.596 22.7728 110.773 22.4857 110.91 22.2305C111.047 21.9753 111.115 21.7884 111.115 21.6699C111.115 21.4967 111.056 21.3418 110.938 21.2051C110.819 21.0592 110.673 20.9362 110.5 20.8359C110.327 20.7357 110.14 20.6628 109.939 20.6172C109.748 20.5625 109.579 20.5352 109.434 20.5352ZM118.908 24.0625C118.744 24.2174 118.525 24.4316 118.252 24.7051C117.979 24.9785 117.664 25.2747 117.309 25.5938C116.962 25.9128 116.589 26.2363 116.188 26.5645C115.796 26.8835 115.39 27.1751 114.971 27.4395C114.561 27.7038 114.155 27.918 113.754 28.082C113.353 28.2552 112.975 28.3418 112.619 28.3418C112.3 28.3418 112.027 28.2734 111.799 28.1367C111.571 28 111.38 27.8223 111.225 27.6035C111.079 27.3848 110.969 27.1387 110.896 26.8652C110.824 26.5827 110.787 26.2956 110.787 26.0039C110.787 25.8125 110.801 25.6257 110.828 25.4434C110.855 25.252 110.901 25.0742 110.965 24.9102C110.682 25.293 110.359 25.6895 109.994 26.0996C109.639 26.5007 109.251 26.8698 108.832 27.207C108.422 27.5352 107.989 27.804 107.533 28.0137C107.087 28.2324 106.631 28.3418 106.166 28.3418C105.929 28.3418 105.651 28.2917 105.332 28.1914C105.022 28.1003 104.726 27.9453 104.443 27.7266C104.161 27.5078 103.924 27.2253 103.732 26.8789C103.541 26.5326 103.445 26.1087 103.445 25.6074C103.445 25.2337 103.5 24.7871 103.609 24.2676C103.728 23.748 103.901 23.2103 104.129 22.6543C104.366 22.0892 104.662 21.5332 105.018 20.9863C105.382 20.4395 105.811 19.9518 106.303 19.5234C106.795 19.0859 107.355 18.735 107.984 18.4707C108.613 18.1973 109.315 18.0605 110.09 18.0605C110.491 18.0605 110.842 18.1107 111.143 18.2109C111.443 18.3112 111.699 18.4206 111.908 18.5391C112.145 18.6849 112.355 18.8444 112.537 19.0176C112.692 18.9355 112.852 18.8581 113.016 18.7852C113.152 18.7214 113.294 18.6667 113.439 18.6211C113.594 18.5664 113.727 18.5391 113.836 18.5391C114.182 18.5391 114.465 18.6348 114.684 18.8262C114.902 19.0176 115.012 19.2272 115.012 19.4551C115.012 19.5189 115.007 19.569 114.998 19.6055C114.952 19.7786 114.88 19.9974 114.779 20.2617C114.688 20.526 114.583 20.8223 114.465 21.1504C114.346 21.4694 114.223 21.8066 114.096 22.1621C113.977 22.5085 113.868 22.8503 113.768 23.1875C113.667 23.5247 113.585 23.8438 113.521 24.1445C113.458 24.4362 113.426 24.6868 113.426 24.8965C113.426 25.1699 113.471 25.3978 113.562 25.5801C113.654 25.7533 113.809 25.8398 114.027 25.8398C114.164 25.8398 114.324 25.7988 114.506 25.7168C114.697 25.6257 114.902 25.5072 115.121 25.3613C115.34 25.2155 115.563 25.0514 115.791 24.8691C116.028 24.6777 116.256 24.4863 116.475 24.2949C116.985 23.8392 117.527 23.3197 118.102 22.7363C118.247 22.6178 118.389 22.5586 118.525 22.5586C118.708 22.5586 118.858 22.6497 118.977 22.832C119.104 23.0052 119.168 23.2012 119.168 23.4199C119.168 23.6751 119.081 23.8893 118.908 24.0625ZM120.781 16.1738C120.781 15.9642 120.818 15.75 120.891 15.5312C120.973 15.3034 121.091 15.0983 121.246 14.916C121.401 14.7337 121.592 14.5833 121.82 14.4648C122.057 14.3464 122.335 14.2871 122.654 14.2871C123.183 14.2871 123.552 14.3919 123.762 14.6016C123.971 14.8021 124.076 15.0573 124.076 15.3672C124.076 15.5404 124.04 15.7318 123.967 15.9414C123.903 16.151 123.803 16.347 123.666 16.5293C123.529 16.7025 123.352 16.8483 123.133 16.9668C122.914 17.0853 122.654 17.1445 122.354 17.1445C121.788 17.1445 121.392 17.0579 121.164 16.8848C120.936 16.7025 120.809 16.4655 120.781 16.1738ZM119.277 19.25C119.432 18.9948 119.61 18.8125 119.811 18.7031C120.011 18.5938 120.216 18.5391 120.426 18.5391C120.772 18.5391 121.068 18.653 121.314 18.8809C121.57 19.0996 121.697 19.3822 121.697 19.7285C121.688 19.8105 121.674 19.8926 121.656 19.9746C121.647 20.0566 121.62 20.1387 121.574 20.2207C121.447 20.4577 121.342 20.6582 121.26 20.8223C121.178 20.9863 121.1 21.1413 121.027 21.2871C120.964 21.4238 120.9 21.5605 120.836 21.6973C120.772 21.834 120.695 21.998 120.604 22.1895C120.494 22.4173 120.371 22.668 120.234 22.9414C120.098 23.2057 119.965 23.4792 119.838 23.7617C119.719 24.0443 119.615 24.3223 119.523 24.5957C119.441 24.8691 119.4 25.1198 119.4 25.3477C119.4 25.5938 119.46 25.7578 119.578 25.8398C119.706 25.9128 119.883 25.9492 120.111 25.9492C120.367 25.9492 120.631 25.8945 120.904 25.7852C121.187 25.6758 121.469 25.5345 121.752 25.3613C122.035 25.1882 122.312 24.9922 122.586 24.7734C122.859 24.5456 123.115 24.3177 123.352 24.0898C123.598 23.862 123.821 23.6432 124.021 23.4336C124.231 23.224 124.404 23.0371 124.541 22.873C124.723 22.6999 124.906 22.6133 125.088 22.6133C125.252 22.6133 125.384 22.6862 125.484 22.832C125.594 22.9779 125.648 23.1647 125.648 23.3926C125.648 23.6022 125.594 23.8255 125.484 24.0625C125.384 24.2995 125.215 24.5228 124.979 24.7324C124.514 25.2064 124.04 25.6621 123.557 26.0996C123.074 26.528 122.577 26.9108 122.066 27.248C121.565 27.5762 121.059 27.8405 120.549 28.041C120.038 28.2415 119.523 28.3418 119.004 28.3418C118.266 28.3418 117.682 28.1549 117.254 27.7812C116.835 27.3984 116.625 26.806 116.625 26.0039C116.625 25.5846 116.684 25.1745 116.803 24.7734C116.921 24.3724 117.062 23.985 117.227 23.6113C117.391 23.2285 117.564 22.8639 117.746 22.5176C117.928 22.1621 118.083 21.8249 118.211 21.5059C118.257 21.3874 118.334 21.2051 118.443 20.959C118.562 20.7129 118.685 20.4622 118.812 20.207C118.958 19.9062 119.113 19.5872 119.277 19.25ZM128.123 20.3984C127.786 21.0547 127.467 21.6973 127.166 22.3262C126.865 22.946 126.583 23.5202 126.318 24.0488C126.209 24.2676 126.1 24.5228 125.99 24.8145C125.89 25.097 125.84 25.3477 125.84 25.5664C125.84 25.694 125.867 25.7943 125.922 25.8672C125.986 25.9401 126.086 25.9766 126.223 25.9766C126.414 25.9766 126.656 25.9219 126.947 25.8125C127.239 25.694 127.553 25.5436 127.891 25.3613C128.228 25.1699 128.583 24.9557 128.957 24.7188C129.331 24.4727 129.695 24.222 130.051 23.9668C130.415 23.7025 130.762 23.4427 131.09 23.1875C131.418 22.9232 131.71 22.6816 131.965 22.4629C132.111 22.3626 132.247 22.3125 132.375 22.3125C132.53 22.3125 132.658 22.3809 132.758 22.5176C132.858 22.6543 132.908 22.8275 132.908 23.0371C132.908 23.2467 132.858 23.4609 132.758 23.6797C132.658 23.8984 132.475 24.1126 132.211 24.3223C131.618 24.86 131.017 25.3704 130.406 25.8535C129.805 26.3366 129.203 26.765 128.602 27.1387C128.009 27.5033 127.421 27.7949 126.838 28.0137C126.255 28.2324 125.689 28.3418 125.143 28.3418C124.778 28.3418 124.473 28.2917 124.227 28.1914C123.98 28.1003 123.78 27.9727 123.625 27.8086C123.479 27.6354 123.374 27.4395 123.311 27.2207C123.247 26.9928 123.215 26.7513 123.215 26.4961C123.215 26.0404 123.292 25.5664 123.447 25.0742C123.602 24.582 123.775 24.14 123.967 23.748C124.24 23.1829 124.509 22.6224 124.773 22.0664C125.047 21.5104 125.311 20.9772 125.566 20.4668H124.979C124.468 20.4668 124.117 20.3848 123.926 20.2207C123.734 20.0566 123.639 19.8698 123.639 19.6602C123.639 19.569 123.666 19.4596 123.721 19.332C123.785 19.1953 123.871 19.0723 123.98 18.9629C124.099 18.8444 124.24 18.7441 124.404 18.6621C124.568 18.5801 124.755 18.5391 124.965 18.5391H126.441L129.326 12.8105C129.508 12.4642 129.732 12.2181 129.996 12.0723C130.27 11.9173 130.552 11.8398 130.844 11.8398C131.117 11.8398 131.368 11.9128 131.596 12.0586C131.824 12.2044 131.938 12.446 131.938 12.7832C131.938 12.9564 131.896 13.1341 131.814 13.3164C131.742 13.4896 131.641 13.6947 131.514 13.9316C131.432 14.0866 131.331 14.2734 131.213 14.4922C131.094 14.7018 130.967 14.9297 130.83 15.1758C130.702 15.4128 130.566 15.6634 130.42 15.9277C130.283 16.1921 130.146 16.4473 130.01 16.6934C129.7 17.2767 129.372 17.8919 129.025 18.5391H133.482C133.701 18.5391 133.902 18.5527 134.084 18.5801C134.266 18.5983 134.421 18.6439 134.549 18.7168C134.686 18.7806 134.79 18.8717 134.863 18.9902C134.936 19.1087 134.973 19.2682 134.973 19.4688C134.973 19.569 134.954 19.6693 134.918 19.7695C134.891 19.8698 134.831 19.9609 134.74 20.043C134.658 20.125 134.54 20.1934 134.385 20.248C134.239 20.3027 134.048 20.3392 133.811 20.3574L128.123 20.3984ZM136.504 20.4668C136.076 20.4668 135.661 20.5762 135.26 20.7949C134.868 21.0046 134.517 21.2871 134.207 21.6426C133.906 21.9889 133.665 22.3854 133.482 22.832C133.3 23.2695 133.209 23.7207 133.209 24.1855C133.209 24.3587 133.223 24.5501 133.25 24.7598C133.277 24.9603 133.332 25.1517 133.414 25.334C133.505 25.5072 133.633 25.653 133.797 25.7715C133.961 25.89 134.18 25.9492 134.453 25.9492C134.872 25.9492 135.278 25.8398 135.67 25.6211C136.071 25.3932 136.426 25.1016 136.736 24.7461C137.046 24.3815 137.292 23.9714 137.475 23.5156C137.657 23.0599 137.748 22.5996 137.748 22.1348C137.748 21.9525 137.734 21.7656 137.707 21.5742C137.689 21.3737 137.634 21.1914 137.543 21.0273C137.461 20.8633 137.338 20.7311 137.174 20.6309C137.01 20.5215 136.786 20.4668 136.504 20.4668ZM137.215 18.0605C137.561 18.0605 137.93 18.1061 138.322 18.1973C138.723 18.2884 139.092 18.4434 139.43 18.6621C139.767 18.8809 140.045 19.1725 140.264 19.5371C140.492 19.8926 140.605 20.3346 140.605 20.8633C140.605 21.1367 140.569 21.4512 140.496 21.8066C140.423 22.153 140.314 22.5176 140.168 22.9004C140.259 23.0098 140.364 23.0872 140.482 23.1328C140.601 23.1784 140.729 23.2012 140.865 23.2012C141.057 23.2012 141.266 23.1465 141.494 23.0371C141.731 22.9277 141.973 22.7865 142.219 22.6133C142.465 22.4401 142.711 22.2441 142.957 22.0254C143.203 21.8066 143.436 21.5879 143.654 21.3691C143.873 21.1504 144.069 20.9453 144.242 20.7539C144.424 20.5534 144.575 20.3848 144.693 20.248C144.757 20.1842 144.835 20.1523 144.926 20.1523C145.053 20.1523 145.167 20.2207 145.268 20.3574C145.368 20.485 145.418 20.6673 145.418 20.9043C145.418 21.1413 145.345 21.4147 145.199 21.7246C145.062 22.0345 144.803 22.3581 144.42 22.6953C144.201 22.9323 143.951 23.2057 143.668 23.5156C143.385 23.8255 143.085 24.1172 142.766 24.3906C142.447 24.6641 142.114 24.8965 141.768 25.0879C141.421 25.2793 141.075 25.375 140.729 25.375C140.492 25.375 140.259 25.3385 140.031 25.2656C139.812 25.1927 139.589 25.0742 139.361 24.9102C139.033 25.4206 138.66 25.8854 138.24 26.3047C137.821 26.724 137.352 27.084 136.832 27.3848C136.322 27.6855 135.766 27.918 135.164 28.082C134.572 28.2552 133.938 28.3418 133.264 28.3418C133.008 28.3418 132.712 28.2917 132.375 28.1914C132.038 28.0911 131.714 27.9271 131.404 27.6992C131.104 27.4622 130.848 27.1569 130.639 26.7832C130.429 26.4095 130.324 25.9538 130.324 25.416C130.324 25.0514 130.383 24.6139 130.502 24.1035C130.62 23.5931 130.798 23.069 131.035 22.5312C131.281 21.9844 131.587 21.4466 131.951 20.918C132.325 20.3802 132.767 19.9017 133.277 19.4824C133.788 19.054 134.371 18.7122 135.027 18.457C135.684 18.1927 136.413 18.0605 137.215 18.0605ZM145.049 19.7012C145.231 19.3092 145.459 19.0176 145.732 18.8262C146.006 18.6348 146.275 18.5391 146.539 18.5391C146.758 18.5391 146.954 18.6211 147.127 18.7852C147.3 18.9401 147.387 19.1725 147.387 19.4824C147.387 19.6009 147.373 19.7285 147.346 19.8652C147.318 20.002 147.268 20.1478 147.195 20.3027C147.396 20.0475 147.683 19.7878 148.057 19.5234C148.43 19.25 148.84 19.0085 149.287 18.7988C149.743 18.5801 150.208 18.4023 150.682 18.2656C151.165 18.1289 151.62 18.0605 152.049 18.0605C152.532 18.0605 152.933 18.179 153.252 18.416C153.58 18.6439 153.744 19.0358 153.744 19.5918C153.744 19.9199 153.694 20.2617 153.594 20.6172C153.493 20.9727 153.361 21.3281 153.197 21.6836C153.042 22.0391 152.865 22.39 152.664 22.7363C152.473 23.0736 152.281 23.3926 152.09 23.6934C151.898 23.9941 151.721 24.2721 151.557 24.5273C151.402 24.7734 151.279 24.9785 151.188 25.1426C151.069 25.2884 151.01 25.457 151.01 25.6484C151.01 25.7214 151.033 25.7852 151.078 25.8398C151.124 25.8945 151.197 25.9219 151.297 25.9219C151.361 25.9219 151.434 25.9173 151.516 25.9082C151.598 25.89 151.698 25.8398 151.816 25.7578C152.309 25.5755 152.81 25.3477 153.32 25.0742C153.84 24.8008 154.337 24.5137 154.811 24.2129C155.285 23.903 155.717 23.5977 156.109 23.2969C156.51 22.987 156.843 22.709 157.107 22.4629C157.18 22.3991 157.253 22.3535 157.326 22.3262C157.399 22.2988 157.467 22.2852 157.531 22.2852C157.686 22.2852 157.805 22.3444 157.887 22.4629C157.978 22.5814 158.023 22.7318 158.023 22.9141C158.023 23.1966 157.932 23.5111 157.75 23.8574C157.577 24.2038 157.299 24.5273 156.916 24.8281C156.396 25.2018 155.918 25.5436 155.48 25.8535C155.052 26.1634 154.61 26.4551 154.154 26.7285C153.708 26.9928 153.225 27.2435 152.705 27.4805C152.195 27.7083 151.593 27.9225 150.9 28.123C150.663 28.196 150.445 28.2507 150.244 28.2871C150.053 28.3236 149.875 28.3418 149.711 28.3418C149.228 28.3418 148.872 28.2096 148.645 27.9453C148.426 27.6719 148.316 27.2936 148.316 26.8105C148.316 26.7467 148.316 26.6875 148.316 26.6328C148.326 26.569 148.335 26.5007 148.344 26.4277C148.362 26.1452 148.435 25.8353 148.562 25.498C148.699 25.1608 148.859 24.8145 149.041 24.459C149.232 24.1035 149.433 23.7526 149.643 23.4062C149.852 23.0508 150.044 22.7181 150.217 22.4082C150.399 22.0892 150.549 21.8066 150.668 21.5605C150.786 21.3145 150.846 21.1139 150.846 20.959C150.846 20.8223 150.805 20.7083 150.723 20.6172C150.65 20.5169 150.536 20.4668 150.381 20.4668C149.798 20.4668 149.242 20.64 148.713 20.9863C148.193 21.3327 147.706 21.7611 147.25 22.2715C146.794 22.7728 146.375 23.306 145.992 23.8711C145.609 24.4362 145.272 24.9421 144.98 25.3887C144.798 25.6895 144.63 26.013 144.475 26.3594C144.329 26.6966 144.174 27.0156 144.01 27.3164C143.846 27.6081 143.659 27.8496 143.449 28.041C143.249 28.2415 142.993 28.3418 142.684 28.3418C142.365 28.3418 142.114 28.2415 141.932 28.041C141.749 27.8405 141.658 27.5944 141.658 27.3027C141.658 27.1478 141.722 26.8971 141.85 26.5508C141.977 26.2044 142.141 25.8034 142.342 25.3477C142.542 24.8919 142.766 24.4043 143.012 23.8848C143.267 23.3561 143.518 22.8366 143.764 22.3262C144.019 21.8066 144.26 21.319 144.488 20.8633C144.716 20.4076 144.903 20.0202 145.049 19.7012ZM162.221 18.0605C162.622 18.0605 162.973 18.1107 163.273 18.2109C163.574 18.3112 163.829 18.4206 164.039 18.5391C164.276 18.6849 164.486 18.8444 164.668 19.0176C164.796 18.9355 164.932 18.8581 165.078 18.7852C165.206 18.7214 165.347 18.6667 165.502 18.6211C165.657 18.5664 165.812 18.5391 165.967 18.5391C166.368 18.5391 166.678 18.6211 166.896 18.7852C167.115 18.9492 167.225 19.1452 167.225 19.373C167.225 19.4915 167.193 19.61 167.129 19.7285L163.93 25.7852L164.189 25.5527C165.265 24.9238 166.149 24.4316 166.842 24.0762C167.535 23.7116 168.086 23.4427 168.496 23.2695C168.906 23.0964 169.198 22.9915 169.371 22.9551C169.553 22.9095 169.667 22.8867 169.713 22.8867C169.923 22.8867 170.082 22.9688 170.191 23.1328C170.31 23.2878 170.369 23.4837 170.369 23.7207C170.369 23.985 170.292 24.2539 170.137 24.5273C169.991 24.8008 169.763 24.9967 169.453 25.1152C169.043 25.3249 168.564 25.5527 168.018 25.7988C167.471 26.0358 166.901 26.3001 166.309 26.5918C165.716 26.8835 165.119 27.2116 164.518 27.5762C163.925 27.9316 163.369 28.3281 162.85 28.7656L160.197 33.5645C159.979 34.084 159.778 34.5078 159.596 34.8359C159.423 35.1641 159.249 35.4238 159.076 35.6152C158.903 35.8066 158.725 35.9388 158.543 36.0117C158.361 36.0846 158.151 36.1211 157.914 36.1211C157.559 36.1211 157.276 35.998 157.066 35.752C156.866 35.5059 156.766 35.2096 156.766 34.8633C156.766 34.4987 156.852 34.0749 157.025 33.5918C157.199 33.1087 157.44 32.5846 157.75 32.0195C158.069 31.4635 158.452 30.8757 158.898 30.2559C159.345 29.6452 159.842 29.0208 160.389 28.3828L162.084 26.2227C161.738 26.5417 161.396 26.8151 161.059 27.043C160.721 27.2708 160.398 27.4577 160.088 27.6035C159.778 27.7402 159.486 27.8405 159.213 27.9043C158.949 27.9681 158.716 28 158.516 28C158.151 28 157.814 27.918 157.504 27.7539C157.194 27.5807 156.925 27.3438 156.697 27.043C156.479 26.7422 156.305 26.3867 156.178 25.9766C156.05 25.5664 155.986 25.1198 155.986 24.6367C155.986 23.6341 156.178 22.7272 156.561 21.916C156.952 21.1048 157.449 20.4167 158.051 19.8516C158.661 19.2773 159.331 18.8353 160.061 18.5254C160.799 18.2155 161.519 18.0605 162.221 18.0605ZM161.701 20.4668C161.273 20.4668 160.858 20.5762 160.457 20.7949C160.056 21.0046 159.701 21.2871 159.391 21.6426C159.081 21.9889 158.835 22.39 158.652 22.8457C158.47 23.3014 158.379 23.7708 158.379 24.2539C158.379 24.3997 158.388 24.5592 158.406 24.7324C158.434 24.8965 158.484 25.0514 158.557 25.1973C158.639 25.3431 158.753 25.4661 158.898 25.5664C159.053 25.6576 159.263 25.7031 159.527 25.7031C159.719 25.7031 159.942 25.6211 160.197 25.457C160.462 25.2839 160.73 25.0697 161.004 24.8145C161.286 24.5501 161.56 24.263 161.824 23.9531C162.089 23.6341 162.326 23.3242 162.535 23.0234C162.754 22.7227 162.927 22.4538 163.055 22.2168C163.182 21.9707 163.246 21.7884 163.246 21.6699C163.246 21.4694 163.191 21.2962 163.082 21.1504C162.973 20.9954 162.836 20.8678 162.672 20.7676C162.517 20.6673 162.348 20.5944 162.166 20.5488C161.993 20.4941 161.838 20.4668 161.701 20.4668Z" fill="black"/>
</svg>
