<svg width="200" height="60" viewBox="0 0 200 60" fill="none" xmlns="http://www.w3.org/2000/svg">
<ellipse opacity="0.5" cx="26.1129" cy="42.793" rx="17.2221" ry="10.208" fill="#5C73BC"/>
<path d="M11.0664 43.3806C13.2558 45.6896 17.8415 49.8717 26.0879 49.8717C34.3342 49.8717 38.92 45.6896 41.1094 43.3806C41.7913 42.6614 42.5441 41.6999 43.285 40.583C39.3814 44.2817 33.1317 46.6778 26.0879 46.6778C19.044 46.6778 12.7943 44.2817 8.89075 40.583C9.63163 41.6999 10.3844 42.6614 11.0664 43.3806Z" fill="#4159A5" stroke="black" stroke-width="1.00201"/>
<path d="M26.0502 42.9805C37.879 42.9805 47.4682 36.2232 47.4682 27.8877V29.0776C47.4682 30.6386 47.1792 32.1484 46.6398 33.5776C45.8646 36.0783 44.5751 38.5791 43.2473 40.5806C39.3437 44.2793 33.0941 46.6754 26.0502 46.6754C19.0063 46.6754 12.7567 44.2793 8.85308 40.5806C7.52535 38.5791 6.23585 36.0783 5.46064 33.5776C4.92116 32.1484 4.6322 30.6386 4.6322 29.0776V27.8877C4.6322 36.2232 14.2214 42.9805 26.0502 42.9805Z" fill="#5C73BC" stroke="black" stroke-width="1.00201"/>
<path d="M26.0503 42.9815C37.8792 42.9815 47.4683 36.2242 47.4683 27.8887C47.4683 19.5532 37.8792 12.7959 26.0503 12.7959C14.2215 12.7959 4.63232 19.5532 4.63232 27.8887C4.63232 36.2242 14.2215 42.9815 26.0503 42.9815Z" fill="#FF4E61" stroke="black" stroke-width="1.00201"/>
<path d="M26.0492 18.6826C36.9069 18.6826 45.7223 25.379 45.8378 33.6731C42.6171 39.1381 34.97 42.9814 26.0492 42.9814C17.1284 42.9814 9.48134 39.1381 6.26062 33.6731C6.37612 25.379 15.1915 18.6826 26.0492 18.6826Z" fill="#F4A58C" stroke="black" stroke-width="1.00201"/>
<path d="M46.054 33.4819L46.0473 33.4996L46.0417 33.5177C44.855 37.3457 42.6907 41.1504 40.8679 43.0728C38.712 45.3465 34.4277 49.7443 26.0503 49.7443C17.673 49.7443 13.3886 45.3465 11.2328 43.0728C9.40998 41.1504 7.24565 37.3457 6.05893 33.5177L6.05334 33.4996L6.04667 33.482C5.53285 32.1207 5.25858 30.6858 5.25858 29.2031V28.0132C5.25858 24.104 7.50625 20.5025 11.2663 17.8529C15.0245 15.2045 20.2495 13.5467 26.0503 13.5467C31.8511 13.5467 37.0761 15.2045 40.8344 17.8529C44.5944 20.5025 46.8421 24.104 46.8421 28.0132V29.2031C46.8421 30.6858 46.5678 32.1207 46.054 33.4819Z" stroke="black" stroke-width="1.25251"/>
<path d="M37.3811 20.1101L35.6158 18.3049C34.276 17.3954 31.4863 17.2173 29.3732 18.3965C28.92 17.9364 27.6052 17.3623 25.9739 17.3623C12.2092 17.3623 8.08585 30.999 10.1256 37.0551L40.3741 36.8821C44.1127 33.5945 41.5636 25.7453 37.3155 23.875C37.6494 22.6626 37.7621 21.3169 37.3811 20.1101Z" fill="white"/>
<path d="M35.6158 18.3049L37.3811 20.1101L41.5636 15.7095C42.2434 16.4016 43.9427 17.4398 45.3022 16.0555C47.0016 14.3252 45.1323 11.5568 43.0931 12.0758C43.4329 10.3455 41.3937 7.75001 39.1845 9.99939C37.9071 11.3 38.7313 13.3447 39.6943 13.8061L35.6158 18.3049Z" fill="white"/>
<path d="M23.2554 25.4948C24.0194 22.6748 26.6619 19.9095 29.3732 18.3965M35.6158 18.3049L37.3811 20.1101M35.6158 18.3049C34.276 17.3954 31.4863 17.2173 29.3732 18.3965M35.6158 18.3049L39.6943 13.8061C38.7313 13.3447 37.9071 11.3 39.1845 9.99939C41.3937 7.75001 43.4329 10.3455 43.0931 12.0758C45.1323 11.5568 47.0016 14.3252 45.3022 16.0555C43.9427 17.4398 42.2434 16.4016 41.5636 15.7095L37.3811 20.1101M37.3811 20.1101C37.7621 21.3169 37.6494 22.6626 37.3155 23.875M30.3481 31.8014C32.6961 30.8659 36.309 27.5301 37.3155 23.875M29.3732 18.3965C28.92 17.9364 27.6052 17.3623 25.9739 17.3623C12.2092 17.3623 8.08585 30.999 10.1256 37.0551L40.3741 36.8821C44.1127 33.5945 41.5636 25.7453 37.3155 23.875" stroke="black" stroke-width="1.25251" stroke-linecap="round" stroke-linejoin="round" stroke-dasharray="6.26 2.51"/>
<path d="M44.5877 35.5289L43.6377 34.5582C42.5747 33.4722 40.8297 33.4628 39.7551 34.5373C38.6887 35.6038 36.9544 35.5986 35.888 34.5321C34.8158 33.4599 33.0722 33.4547 32 34.5269C30.9278 35.5991 29.1894 35.5991 28.1172 34.5269C27.045 33.4547 25.3066 33.4547 24.2344 34.5269C23.1622 35.5991 21.4238 35.5991 20.3516 34.5269C19.2794 33.4547 17.541 33.4547 16.4688 34.5269C15.3966 35.5991 13.6424 35.5833 12.5702 34.5111C11.5055 33.4464 9.77241 33.4032 8.6739 34.433L7.63855 35.4036C8.12584 35.9728 8.65335 36.5116 9.21649 37.0196C9.78558 37.533 10.3911 38.0148 11.0282 38.4645C18.9205 44.0346 31.6711 44.6713 40.2957 39.1904C40.9531 38.7726 41.5864 38.3193 42.1919 37.83C43.0505 37.136 43.8529 36.3695 44.5877 35.5289Z" fill="#F4A58C"/>
<path d="M40.2957 39.1904C40.9531 38.7726 41.5864 38.3193 42.1919 37.83C43.0505 37.136 43.8529 36.3695 44.5877 35.5289L43.6377 34.5582C42.5747 33.4722 40.8297 33.4628 39.7551 34.5373V34.5373C38.6887 35.6038 36.9544 35.5986 35.888 34.5321V34.5321C34.8158 33.4599 33.0722 33.4547 32 34.5269V34.5269C30.9278 35.5991 29.1894 35.5991 28.1172 34.5269V34.5269C27.045 33.4547 25.3066 33.4547 24.2344 34.5269V34.5269C23.1622 35.5991 21.4238 35.5991 20.3516 34.5269V34.5269C19.2794 33.4547 17.541 33.4547 16.4688 34.5269V34.5269C15.3966 35.5991 13.6424 35.5833 12.5702 34.5111V34.5111C11.5055 33.4464 9.77241 33.4032 8.6739 34.433L7.63855 35.4036C8.12584 35.9728 8.65335 36.5116 9.21649 37.0196C9.78558 37.533 10.3911 38.0148 11.0282 38.4645M40.2957 39.1904V39.1904C39.8588 38.7535 39.2061 38.6139 38.6287 38.8338L38.2772 38.9678C37.471 39.2749 36.5593 39.0701 35.9619 38.4478L35.7279 38.204C34.7325 37.1672 33.0935 37.1088 32.027 38.0722L31.9307 38.1591C30.8674 39.1195 29.2498 39.1195 28.1864 38.1591L28.1067 38.0871C27.01 37.0965 25.3311 37.106 24.2344 38.0966V38.0966C23.1376 39.0872 21.4588 39.0966 20.362 38.106L20.2588 38.0127C19.1973 37.054 17.5931 37.0193 16.4911 37.9312L16.0133 38.3267C15.2739 38.9386 14.2279 39.0143 13.4081 38.5153L12.9468 38.2345C12.3307 37.8595 11.5381 37.9545 11.0282 38.4645V38.4645M40.2957 39.1904C31.6711 44.6713 18.9205 44.0346 11.0282 38.4645" stroke="black" stroke-width="1.25251" stroke-linecap="round" stroke-linejoin="round"/>
<path d="M62.4974 30.6072C62.8442 30.6072 63.0954 30.7507 63.2508 31.0378C63.4183 31.3128 63.502 31.6298 63.502 31.9886C63.502 32.168 63.4841 32.3234 63.4482 32.455C63.4123 32.5866 63.3405 32.7121 63.2329 32.8317C63.1253 32.9394 62.9817 33.047 62.8024 33.1547C62.623 33.2503 62.3897 33.358 62.1027 33.4776C61.433 33.7646 60.9067 34.1114 60.524 34.5181C60.1413 34.9127 59.9499 35.3074 59.9499 35.7021C59.9499 35.9532 60.0337 36.1924 60.2011 36.4197C60.3685 36.6469 60.6317 36.8502 60.9904 37.0296C61.3492 37.1971 61.8097 37.3346 62.3718 37.4422C62.9459 37.5379 63.6336 37.5857 64.4349 37.5857C65.2601 37.5857 66.0434 37.4901 66.785 37.2987C67.5265 37.0954 68.1723 36.8143 68.7224 36.4555C69.2845 36.0968 69.7271 35.6722 70.05 35.1818C70.3848 34.6915 70.5523 34.1593 70.5523 33.5852C70.5523 33.1547 70.3729 32.7062 70.0141 32.2397C69.6553 31.7733 69.0872 31.2889 68.3098 30.7866C66.9345 29.8896 65.888 29.1661 65.1704 28.6159C64.4648 28.0658 64.0282 27.7189 63.8608 27.5754C62.9638 26.7861 62.2941 26.0266 61.8515 25.2971C61.409 24.5675 61.1878 23.8081 61.1878 23.0187C61.1878 22.2892 61.3612 21.5776 61.708 20.8839C62.0668 20.1903 62.5452 19.5384 63.1432 18.9285C63.7412 18.3186 64.4289 17.7564 65.2063 17.2422C65.9956 16.7159 66.8149 16.2674 67.664 15.8967C68.5251 15.5259 69.3862 15.2389 70.2473 15.0356C71.1204 14.8203 71.9456 14.7127 72.723 14.7127C73.309 14.7127 73.8472 14.7785 74.3376 14.91C74.8399 15.0416 75.2764 15.2509 75.6471 15.5379C76.0179 15.813 76.3049 16.1718 76.5083 16.6143C76.7235 17.0568 76.8312 17.589 76.8312 18.2109C76.8312 19.1079 76.574 19.963 76.0598 20.7763C75.5455 21.5895 74.7621 22.349 73.7097 23.0546C73.2432 23.3775 72.8127 23.539 72.418 23.539C72.0114 23.539 71.6885 23.3955 71.4493 23.1084C71.2101 22.8094 71.0905 22.4626 71.0905 22.0679C71.0905 21.7331 71.1862 21.3982 71.3775 21.0633C71.5808 20.7284 71.9037 20.4414 72.3463 20.2022C72.6931 20.0228 72.9981 19.7836 73.2612 19.4846C73.5362 19.1737 73.6738 18.8747 73.6738 18.5876C73.6738 18.3126 73.5781 18.1332 73.3868 18.0495C73.2074 17.9657 72.9861 17.9239 72.723 17.9239C72.2207 17.9239 71.6705 17.9897 71.0725 18.1212C70.4865 18.2408 69.8945 18.4082 69.2965 18.6235C68.7105 18.8388 68.1364 19.0959 67.5743 19.3949C67.0242 19.6939 66.5338 20.0168 66.1032 20.3637C65.6847 20.7105 65.3438 21.0813 65.0807 21.4759C64.8295 21.8586 64.704 22.2414 64.704 22.6241C64.704 22.8872 64.7578 23.1324 64.8654 23.3596C64.973 23.5868 65.1285 23.8141 65.3318 24.0413C65.5471 24.2685 65.8043 24.5077 66.1032 24.7589C66.4022 24.9981 66.7491 25.2612 67.1437 25.5482L71.3416 28.6518C71.8798 29.0465 72.3582 29.4352 72.7768 29.8179C73.2074 30.1886 73.5661 30.5654 73.8532 30.9481C74.1402 31.3188 74.3615 31.6956 74.5169 32.0783C74.6724 32.461 74.7502 32.8676 74.7502 33.2982C74.7502 34.2549 74.499 35.1938 73.9967 36.1147C73.5063 37.0236 72.8007 37.8369 71.8798 38.5545C70.9709 39.2721 69.8706 39.8521 68.5789 40.2946C67.2992 40.7371 65.876 40.9584 64.3093 40.9584C62.8502 40.9584 61.6064 40.8388 60.5778 40.5996C59.5613 40.3724 58.7241 40.0614 58.0663 39.6667C57.4085 39.2601 56.9301 38.7997 56.6311 38.2854C56.3321 37.7592 56.1826 37.209 56.1826 36.6349C56.1826 36.037 56.3321 35.433 56.6311 34.823C56.9421 34.2011 57.3726 33.6151 57.9228 33.065C58.4849 32.5148 59.1546 32.0245 59.932 31.5939C60.7094 31.1633 61.5645 30.8345 62.4974 30.6072ZM87.0747 29.2259C87.4096 28.9627 87.6906 28.7654 87.9179 28.6339C88.1571 28.4903 88.3604 28.3887 88.5278 28.3289C88.6953 28.2571 88.8448 28.2153 88.9763 28.2033C89.1198 28.1913 89.2633 28.1854 89.4069 28.1854C89.658 28.1854 89.8374 28.281 89.9451 28.4724C90.0527 28.6518 90.1065 28.8432 90.1065 29.0465C90.1065 29.2139 90.0766 29.3694 90.0168 29.5129L85.9983 37.8907C86.5724 37.4602 87.2302 37.0416 87.9717 36.6349C88.7252 36.2164 89.4427 35.8456 90.1245 35.5227C90.8181 35.1878 91.4101 34.9187 91.9005 34.7154C92.4028 34.5121 92.6898 34.4104 92.7616 34.4104C93.0606 34.4104 93.3237 34.524 93.5509 34.7513C93.7782 34.9785 93.8918 35.2656 93.8918 35.6124C93.8918 35.9233 93.7722 36.2522 93.533 36.5991C93.3058 36.9459 92.8991 37.2808 92.3131 37.6037C91.4759 38.0701 90.7464 38.4708 90.1245 38.8056C89.5025 39.1286 88.9524 39.4216 88.474 39.6847C87.9956 39.9478 87.571 40.187 87.2003 40.4023C86.8295 40.6175 86.4767 40.8388 86.1418 41.066C85.8189 41.2933 85.496 41.5325 85.1731 41.7836C84.8622 42.0467 84.5213 42.3517 84.1505 42.6985C83.8755 43.4161 83.6004 44.1038 83.3253 44.7616C83.0622 45.4194 82.817 45.9994 82.5898 46.5018C82.3745 47.0041 82.1951 47.4107 82.0516 47.7217C81.9081 48.0326 81.8304 48.2 81.8184 48.224C80.8496 50.2332 79.7852 51.2378 78.6251 51.2378C78.1467 51.2378 77.758 51.0764 77.4591 50.7535C77.1601 50.4425 77.0106 50.0179 77.0106 49.4797C77.0106 48.9774 77.0704 48.4751 77.19 47.9728C77.3215 47.4825 77.5428 46.9383 77.8537 46.3403C78.1766 45.7423 78.5952 45.0726 79.1095 44.3311C79.6357 43.6015 80.2935 42.7404 81.0829 41.7477L84.6708 34.4822C82.8768 36.611 81.2503 38.2376 79.7912 39.3618C78.3321 40.486 76.9687 41.0481 75.701 41.0481C75.2943 41.0481 74.9475 40.9524 74.6605 40.7611C74.3734 40.5817 74.2299 40.2767 74.2299 39.8461C74.2299 39.2482 74.3734 38.5724 74.6605 37.819C74.8279 37.4123 74.9953 37.0416 75.1628 36.7067C75.3302 36.3599 75.5036 36.019 75.683 35.6841C75.8624 35.3373 76.0478 34.9666 76.2392 34.5719C76.4425 34.1772 76.6577 33.7347 76.885 33.2443C77.1242 32.742 77.3813 32.168 77.6564 31.5221C77.9434 30.8644 78.2604 30.0989 78.6072 29.2259C78.8464 28.7594 79.1573 28.4246 79.5401 28.2212C79.9228 28.006 80.2935 27.8983 80.6523 27.8983C81.0231 27.8983 81.334 27.988 81.5852 28.1674C81.8483 28.3349 81.9798 28.5621 81.9798 28.8491C81.9798 28.9926 81.9559 29.1182 81.9081 29.2259L78.6251 36.0609C78.4577 36.4077 78.374 36.6828 78.374 36.8861C78.374 37.0655 78.4457 37.1552 78.5893 37.1552C78.7208 37.1552 78.8882 37.0894 79.0916 36.9579C79.2949 36.8263 79.4862 36.6768 79.6656 36.5094L87.0747 29.2259ZM103.238 36.9579C103.226 36.9818 103.22 37.0117 103.22 37.0476C103.22 37.0834 103.214 37.1133 103.202 37.1373C103.202 37.3525 103.256 37.5798 103.364 37.819C103.472 38.0462 103.645 38.1598 103.884 38.1598C103.98 38.1598 104.052 38.1479 104.099 38.1239C104.781 37.9206 105.469 37.5977 106.163 37.1552C106.868 36.7127 107.544 36.2283 108.19 35.7021C108.836 35.1759 109.428 34.6377 109.966 34.0875C110.516 33.5374 110.97 33.047 111.329 32.6165C111.497 32.4131 111.682 32.3115 111.885 32.3115C112.065 32.3115 112.22 32.3952 112.352 32.5626C112.495 32.7301 112.567 32.9573 112.567 33.2443C112.567 33.4716 112.501 33.7407 112.37 34.0516C112.25 34.3626 112.047 34.6975 111.76 35.0563C111.054 35.8336 110.33 36.5811 109.589 37.2987C108.847 38.0163 108.1 38.6561 107.347 39.2183C106.593 39.7684 105.84 40.2109 105.086 40.5458C104.345 40.8807 103.615 41.0481 102.897 41.0481C102.024 41.0481 101.337 40.8029 100.834 40.3126C100.332 39.8103 100.081 39.0628 100.081 38.0701C100.081 38.0103 100.081 37.9505 100.081 37.8907C100.081 37.819 100.087 37.7532 100.099 37.6934C99.8238 38.1957 99.471 38.6561 99.0405 39.0747C98.6099 39.4814 98.1375 39.8342 97.6232 40.1332C97.109 40.4202 96.5768 40.6415 96.0266 40.7969C95.4765 40.9644 94.9442 41.0481 94.43 41.0481C93.9875 41.0481 93.5808 40.9883 93.2101 40.8687C92.8393 40.7491 92.5164 40.5578 92.2413 40.2946C91.9782 40.0315 91.7689 39.6966 91.6134 39.29C91.4699 38.8834 91.3982 38.393 91.3982 37.819C91.3982 36.8143 91.5536 35.8635 91.8646 34.9666C92.1756 34.0576 92.5882 33.2264 93.1024 32.4729C93.6167 31.7075 94.2027 31.0258 94.8605 30.4278C95.5303 29.8179 96.218 29.3036 96.9236 28.885C97.6412 28.4545 98.3528 28.1256 99.0584 27.8983C99.764 27.6711 100.41 27.5575 100.996 27.5575C101.678 27.5575 102.264 27.6711 102.754 27.8983C102.993 28.0179 103.214 28.1794 103.418 28.3827C103.466 28.2751 103.513 28.1734 103.561 28.0777C103.681 27.7907 103.788 27.5455 103.884 27.3422C103.98 27.1269 104.046 26.9714 104.082 26.8758C104.117 26.7681 104.219 26.517 104.386 26.1223C104.554 25.7276 104.745 25.2672 104.961 24.7409C105.188 24.2028 105.427 23.6287 105.678 23.0187C105.941 22.4088 106.18 21.8347 106.396 21.2965C106.611 20.7583 106.796 20.2979 106.952 19.9152C107.107 19.5205 107.203 19.2694 107.239 19.1617C107.323 18.8627 107.436 18.5757 107.58 18.3006C107.723 18.0136 107.891 17.7684 108.082 17.5651C108.285 17.3498 108.519 17.1824 108.782 17.0628C109.045 16.9312 109.344 16.8654 109.679 16.8654C110.133 16.8654 110.51 16.9671 110.809 17.1704C111.108 17.3618 111.257 17.7385 111.257 18.3006C111.257 18.5278 111.227 18.7611 111.168 19.0003C111.108 19.2395 111.036 19.4727 110.952 19.6999C110.881 19.9271 110.797 20.1544 110.701 20.3816C110.618 20.5969 110.54 20.8002 110.468 20.9916C109.87 22.1875 109.242 23.4912 108.584 24.9024C107.927 26.3017 107.275 27.713 106.629 29.1362C105.983 30.5594 105.367 31.9467 104.781 33.2982C104.195 34.6496 103.681 35.8695 103.238 36.9579ZM102.7 29.9435C101.983 29.9674 101.229 30.1228 100.44 30.4099C99.5308 30.7208 98.6996 31.1873 97.9461 31.8092C97.1927 32.4191 96.5528 33.1726 96.0266 34.0696C95.5123 34.9666 95.2193 35.9951 95.1476 37.1552C95.1476 37.6336 95.3509 37.8728 95.7575 37.8728C96.2598 37.8728 96.7382 37.7711 97.1927 37.5678C97.6472 37.3525 98.0777 37.0715 98.4843 36.7246C98.9029 36.3658 99.2916 35.9592 99.6504 35.5047C100.009 35.0503 100.338 34.5779 100.637 34.0875C100.948 33.5972 101.223 33.1128 101.462 32.6344C101.713 32.144 101.929 31.6896 102.108 31.271C102.168 31.1394 102.252 30.9541 102.359 30.7149C102.455 30.4876 102.569 30.2305 102.7 29.9435ZM112.693 35.415C112.561 35.6901 112.429 36.013 112.298 36.3838C112.178 36.7426 112.118 37.0655 112.118 37.3525C112.118 37.5319 112.154 37.6754 112.226 37.7831C112.298 37.8907 112.435 37.9445 112.639 37.9445C112.89 37.9445 113.201 37.8728 113.572 37.7293C113.954 37.5738 114.361 37.3765 114.791 37.1373C115.234 36.8861 115.688 36.605 116.155 36.2941C116.633 35.9712 117.106 35.6423 117.572 35.3074C118.039 34.9606 118.481 34.6197 118.9 34.2848C119.33 33.938 119.713 33.6211 120.048 33.334C120.143 33.2503 120.257 33.1905 120.389 33.1547C120.52 33.1188 120.634 33.1008 120.73 33.1008C120.969 33.1008 121.166 33.1845 121.322 33.352C121.477 33.5194 121.555 33.7407 121.555 34.0158C121.555 34.2669 121.471 34.548 121.304 34.8589C121.136 35.1699 120.843 35.4748 120.425 35.7738C119.659 36.4795 118.888 37.1492 118.11 37.7831C117.333 38.417 116.556 38.9791 115.778 39.4694C115.013 39.9478 114.247 40.3305 113.482 40.6175C112.728 40.9046 111.993 41.0481 111.275 41.0481C110.785 41.0481 110.372 40.9823 110.037 40.8508C109.715 40.7192 109.451 40.5398 109.248 40.3126C109.057 40.0853 108.919 39.8162 108.836 39.5053C108.752 39.1943 108.71 38.8654 108.71 38.5186C108.71 37.9326 108.794 37.3346 108.961 36.7246C109.14 36.1027 109.35 35.5346 109.589 35.0204C110.008 34.0875 110.432 33.1606 110.863 32.2397C111.293 31.3188 111.688 30.4757 112.047 29.7102L117.482 18.1392C117.698 17.6727 117.985 17.3438 118.344 17.1525C118.714 16.9611 119.085 16.8654 119.456 16.8654C119.827 16.8654 120.161 16.9671 120.46 17.1704C120.771 17.3737 120.927 17.7026 120.927 18.1571C120.927 18.3724 120.873 18.5996 120.765 18.8388C120.67 19.078 120.544 19.3351 120.389 19.6102C120.09 20.1723 119.731 20.86 119.312 21.6733C118.906 22.4865 118.463 23.3716 117.985 24.3283C117.518 25.2851 117.034 26.2838 116.532 27.3243C116.041 28.3528 115.557 29.3574 115.079 30.3381C114.612 31.3188 114.17 32.2517 113.751 33.1367C113.344 34.0098 112.992 34.7692 112.693 35.415ZM123.474 25.0818C123.474 24.8067 123.522 24.5257 123.618 24.2386C123.725 23.9396 123.881 23.6705 124.084 23.4314C124.288 23.1922 124.539 22.9948 124.838 22.8393C125.149 22.6839 125.513 22.6061 125.932 22.6061C126.626 22.6061 127.11 22.7437 127.385 23.0187C127.66 23.2819 127.798 23.6167 127.798 24.0234C127.798 24.2506 127.75 24.5018 127.654 24.7768C127.571 25.0519 127.439 25.309 127.26 25.5482C127.08 25.7755 126.847 25.9668 126.56 26.1223C126.273 26.2778 125.932 26.3555 125.537 26.3555C124.796 26.3555 124.276 26.2419 123.977 26.0147C123.678 25.7755 123.51 25.4645 123.474 25.0818ZM121.501 29.1182C121.704 28.7834 121.937 28.5442 122.201 28.4006C122.464 28.2571 122.733 28.1854 123.008 28.1854C123.462 28.1854 123.851 28.3349 124.174 28.6339C124.509 28.9209 124.676 29.2916 124.676 29.7461C124.664 29.8538 124.646 29.9614 124.622 30.069C124.61 30.1767 124.575 30.2843 124.515 30.3919C124.347 30.7029 124.21 30.966 124.102 31.1813C123.995 31.3966 123.893 31.5999 123.797 31.7912C123.713 31.9706 123.63 32.15 123.546 32.3294C123.462 32.5088 123.361 32.7241 123.241 32.9753C123.098 33.2742 122.936 33.6031 122.757 33.9619C122.577 34.3088 122.404 34.6676 122.236 35.0383C122.081 35.4091 121.943 35.7738 121.824 36.1326C121.716 36.4914 121.662 36.8203 121.662 37.1193C121.662 37.4422 121.74 37.6575 121.896 37.7651C122.063 37.8608 122.296 37.9087 122.595 37.9087C122.93 37.9087 123.277 37.8369 123.636 37.6934C124.006 37.5499 124.377 37.3645 124.748 37.1373C125.119 36.91 125.484 36.6529 125.842 36.3658C126.201 36.0669 126.536 35.7679 126.847 35.4689C127.17 35.1699 127.463 34.8828 127.726 34.6078C128.001 34.3327 128.228 34.0875 128.408 33.8722C128.647 33.645 128.886 33.5314 129.125 33.5314C129.341 33.5314 129.514 33.6271 129.646 33.8184C129.789 34.0098 129.861 34.2549 129.861 34.5539C129.861 34.829 129.789 35.122 129.646 35.433C129.514 35.7439 129.293 36.037 128.982 36.312C128.372 36.9339 127.75 37.5319 127.116 38.106C126.482 38.6681 125.83 39.1704 125.161 39.6129C124.503 40.0435 123.839 40.3903 123.169 40.6534C122.5 40.9165 121.824 41.0481 121.142 41.0481C120.173 41.0481 119.408 40.8029 118.846 40.3126C118.296 39.8103 118.021 39.0329 118.021 37.9804C118.021 37.4303 118.098 36.8921 118.254 36.3658C118.409 35.8396 118.595 35.3313 118.81 34.841C119.025 34.3387 119.252 33.8603 119.492 33.4058C119.731 32.9394 119.934 32.4969 120.102 32.0783C120.161 31.9228 120.263 31.6836 120.407 31.3607C120.562 31.0378 120.724 30.7089 120.891 30.374C121.082 29.9793 121.286 29.5607 121.501 29.1182ZM146.868 36.312C146.341 36.91 145.725 37.496 145.02 38.0701C144.326 38.6322 143.609 39.1345 142.867 39.577C142.126 40.0196 141.396 40.3724 140.678 40.6355C139.961 40.9106 139.315 41.0481 138.741 41.0481C138.167 41.0481 137.7 40.8866 137.342 40.5637C136.983 40.2408 136.803 39.6907 136.803 38.9133C136.803 38.3631 136.899 37.7233 137.09 36.9937C136.78 37.4602 136.391 37.9326 135.924 38.411C135.458 38.8894 134.926 39.3259 134.328 39.7206C133.73 40.1152 133.06 40.4322 132.319 40.6714C131.577 40.9225 130.77 41.0481 129.897 41.0481C129.502 41.0481 129.119 41.0062 128.749 40.9225C128.39 40.8388 128.073 40.6953 127.798 40.492C127.523 40.2887 127.301 40.0196 127.134 39.6847C126.967 39.3379 126.883 38.9073 126.883 38.393C126.883 38.3811 126.907 38.2017 126.955 37.8548C127.002 37.496 127.152 36.9399 127.403 36.1865C127.666 35.421 128.067 34.4343 128.605 33.2264C129.143 32.0185 129.903 30.5534 130.883 28.8312C131.135 28.3767 131.422 28.0538 131.744 27.8625C132.079 27.6591 132.438 27.5575 132.821 27.5575C132.988 27.5575 133.162 27.5814 133.341 27.6292C133.52 27.6651 133.688 27.7309 133.843 27.8266C133.999 27.9103 134.124 28.0239 134.22 28.1674C134.316 28.299 134.364 28.4545 134.364 28.6339C134.364 28.7535 134.346 28.8671 134.31 28.9747C134.25 29.178 134.118 29.4471 133.915 29.782C133.724 30.1049 133.497 30.4816 133.233 30.9122C132.97 31.3308 132.689 31.7853 132.39 32.2756C132.103 32.766 131.834 33.2742 131.583 33.8005C131.332 34.3267 131.117 34.8649 130.937 35.415C130.758 35.9532 130.656 36.4795 130.632 36.9937C130.632 37.209 130.692 37.4063 130.812 37.5857C130.931 37.7651 131.129 37.8548 131.404 37.8548C132.181 37.8548 132.923 37.6396 133.628 37.209C134.334 36.7785 134.986 36.2463 135.584 35.6124C136.182 34.9666 136.72 34.2789 137.198 33.5493C137.688 32.8078 138.095 32.1321 138.418 31.5221C138.645 31.1155 138.843 30.679 139.01 30.2125C139.189 29.7461 139.381 29.3156 139.584 28.9209C139.787 28.5262 140.021 28.1973 140.284 27.9342C140.547 27.6711 140.876 27.5395 141.27 27.5395C141.701 27.5395 142.042 27.6771 142.293 27.9521C142.544 28.2272 142.67 28.5561 142.67 28.9388C142.67 29.1541 142.586 29.4531 142.419 29.8358C142.263 30.2066 142.06 30.6371 141.809 31.1275C141.569 31.6059 141.306 32.1201 141.019 32.6703C140.732 33.2204 140.463 33.7825 140.212 34.3566C139.973 34.9187 139.769 35.4748 139.602 36.025C139.447 36.5632 139.369 37.0655 139.369 37.5319C139.369 37.9625 139.632 38.1778 140.158 38.1778C140.529 38.1778 140.989 38.0701 141.54 37.8548C142.09 37.6396 142.664 37.3406 143.262 36.9579C143.872 36.5632 144.476 36.1027 145.074 35.5765C145.684 35.0503 146.222 34.4822 146.688 33.8722L146.868 36.312ZM152.931 38.106C152.931 38.4767 152.859 38.8296 152.716 39.1644C152.584 39.4993 152.399 39.7983 152.16 40.0614C151.933 40.3126 151.663 40.5099 151.353 40.6534C151.042 40.8089 150.713 40.8866 150.366 40.8866C150.079 40.8866 149.81 40.8268 149.559 40.7072C149.307 40.5996 149.086 40.4501 148.895 40.2588C148.715 40.0674 148.572 39.8461 148.464 39.595C148.357 39.3319 148.303 39.0568 148.303 38.7698C148.303 38.411 148.369 38.0701 148.5 37.7472C148.644 37.4123 148.835 37.1193 149.074 36.8682C149.313 36.617 149.594 36.4197 149.917 36.2762C150.24 36.1207 150.587 36.0429 150.958 36.0429C151.544 36.0429 152.016 36.2403 152.375 36.6349C152.746 37.0296 152.931 37.52 152.931 38.106ZM163.229 39.9897C163.229 39.4156 163.354 38.8296 163.605 38.2316C163.868 37.6336 164.197 37.0177 164.592 36.3838C164.987 35.7499 165.417 35.1101 165.884 34.4642C166.35 33.8065 166.793 33.1367 167.211 32.455C167.331 32.2636 167.426 32.0843 167.498 31.9168C167.57 31.7374 167.606 31.558 167.606 31.3786C167.606 31.1873 167.552 31.0318 167.444 30.9122C167.337 30.7806 167.181 30.7149 166.978 30.7149C166.488 30.7149 166.015 30.8225 165.561 31.0378C165.106 31.2411 164.67 31.5162 164.251 31.863C163.833 32.1979 163.432 32.5866 163.049 33.0291C162.678 33.4716 162.326 33.932 161.991 34.4104C161.668 34.8769 161.363 35.3433 161.076 35.8097C160.789 36.2762 160.526 36.7007 160.286 37.0834C160.071 37.4781 159.874 37.9087 159.694 38.3751C159.515 38.8415 159.318 39.2721 159.102 39.6667C158.899 40.0614 158.666 40.3903 158.403 40.6534C158.14 40.9285 157.811 41.066 157.416 41.066C156.986 41.066 156.645 40.9285 156.394 40.6534C156.142 40.3784 156.017 40.0495 156.017 39.6667C156.017 39.4515 156.095 39.1166 156.25 38.6621C156.406 38.2077 156.603 37.6814 156.842 37.0834C157.093 36.4735 157.374 35.8277 157.685 35.146C157.996 34.4642 158.301 33.7885 158.6 33.1188C158.911 32.449 159.198 31.8211 159.461 31.2351C159.736 30.6371 159.964 30.1288 160.143 29.7102C160.358 29.196 160.639 28.8133 160.986 28.5621C161.345 28.3109 161.698 28.1854 162.045 28.1854C162.344 28.1854 162.607 28.299 162.834 28.5262C163.073 28.7415 163.193 29.0584 163.193 29.477C163.193 29.788 163.121 30.1288 162.977 30.4996C163.3 30.2006 163.647 29.8777 164.018 29.5308C164.389 29.184 164.789 28.8671 165.22 28.58C165.662 28.281 166.153 28.0359 166.691 27.8445C167.229 27.6532 167.833 27.5575 168.503 27.5575C168.838 27.5575 169.155 27.5993 169.454 27.6831C169.753 27.7668 170.016 27.8983 170.243 28.0777C170.482 28.2571 170.674 28.4903 170.817 28.7774C170.973 29.0644 171.062 29.4112 171.086 29.8179C171.361 29.5428 171.66 29.2737 171.983 29.0106C172.306 28.7355 172.653 28.4903 173.024 28.2751C173.406 28.0598 173.819 27.8864 174.261 27.7548C174.704 27.6233 175.194 27.5575 175.733 27.5575C176.127 27.5575 176.504 27.5993 176.863 27.6831C177.222 27.7668 177.538 27.9103 177.814 28.1136C178.101 28.305 178.322 28.5561 178.477 28.8671C178.645 29.178 178.728 29.5607 178.728 30.0152C178.728 30.7328 178.561 31.4145 178.226 32.0603C177.903 32.7062 177.521 33.2982 177.078 33.8364C176.934 34.0158 176.743 34.243 176.504 34.5181C176.265 34.7931 176.032 35.0862 175.804 35.3971C175.577 35.7081 175.38 36.031 175.212 36.3658C175.045 36.6888 174.961 36.9937 174.961 37.2808C174.961 37.5439 175.039 37.7113 175.194 37.7831C175.362 37.8548 175.577 37.8907 175.84 37.8907C176.342 37.8907 176.887 37.7412 177.473 37.4422C178.059 37.1432 178.627 36.7844 179.177 36.3658C179.739 35.9353 180.259 35.4928 180.738 35.0383C181.228 34.5719 181.617 34.1832 181.904 33.8722C181.976 33.7885 182.059 33.7287 182.155 33.6928C182.251 33.657 182.346 33.639 182.442 33.639C182.657 33.639 182.849 33.7347 183.016 33.9261C183.195 34.1174 183.285 34.3686 183.285 34.6795C183.285 34.9187 183.213 35.1818 183.07 35.4689C182.926 35.7559 182.681 36.037 182.334 36.312C181.688 36.9339 181.025 37.5319 180.343 38.106C179.673 38.6681 178.992 39.1704 178.298 39.6129C177.616 40.0435 176.928 40.3903 176.235 40.6534C175.553 40.9165 174.871 41.0481 174.19 41.0481C173.305 41.0481 172.587 40.8388 172.037 40.4202C171.499 40.0016 171.23 39.3379 171.23 38.4289C171.23 37.8309 171.343 37.2688 171.571 36.7426C171.798 36.2164 172.079 35.714 172.414 35.2357C172.749 34.7453 173.101 34.2729 173.472 33.8184C173.843 33.3639 174.166 32.9095 174.441 32.455C174.56 32.2636 174.656 32.0843 174.728 31.9168C174.8 31.7374 174.836 31.558 174.836 31.3786C174.836 31.1873 174.782 31.0318 174.674 30.9122C174.566 30.7806 174.411 30.7149 174.208 30.7149C173.717 30.7149 173.245 30.8225 172.79 31.0378C172.336 31.2411 171.899 31.5162 171.481 31.863C171.062 32.1979 170.662 32.5866 170.279 33.0291C169.908 33.4716 169.555 33.932 169.22 34.4104C168.898 34.8769 168.593 35.3433 168.305 35.8097C168.018 36.2762 167.755 36.7007 167.516 37.0834C167.301 37.4781 167.104 37.9087 166.924 38.3751C166.745 38.8415 166.547 39.2721 166.332 39.6667C166.129 40.0614 165.896 40.3903 165.632 40.6534C165.369 40.9285 165.04 41.066 164.646 41.066C164.502 41.066 164.347 41.0361 164.179 40.9763C164.012 40.9285 163.856 40.8567 163.713 40.7611C163.581 40.6654 163.468 40.5518 163.372 40.4202C163.288 40.2887 163.241 40.1451 163.229 39.9897ZM188.488 30.0152C188.428 30.0032 188.374 29.9973 188.326 29.9973C188.278 29.9973 188.224 29.9973 188.165 29.9973C187.71 29.9973 187.286 30.087 186.891 30.2664C186.496 30.4458 186.132 30.685 185.797 30.984C185.474 31.271 185.181 31.5999 184.918 31.9706C184.666 32.3414 184.439 32.7121 184.236 33.0829C184.033 33.4417 183.859 33.7885 183.716 34.1234C183.584 34.4583 183.482 34.7393 183.411 34.9666C183.829 34.7513 184.26 34.5061 184.702 34.231C185.157 33.956 185.581 33.6928 185.976 33.4417C186.371 33.1905 186.712 32.9633 186.999 32.76C187.298 32.5567 187.507 32.4191 187.627 32.3474C188.165 32.0125 188.535 31.7015 188.739 31.4145C188.942 31.1155 189.044 30.8584 189.044 30.6431C189.044 30.4637 188.984 30.3202 188.864 30.2125C188.757 30.1049 188.631 30.0391 188.488 30.0152ZM189.133 27.5395C190.126 27.5395 190.868 27.7787 191.358 28.2571C191.848 28.7355 192.093 29.3993 192.093 30.2484C192.093 30.7507 191.962 31.277 191.699 31.8271C191.436 32.3773 190.981 32.9394 190.335 33.5134C189.69 34.0756 188.822 34.6556 187.734 35.2536C186.658 35.8396 185.306 36.4316 183.68 37.0296C183.74 37.3765 183.925 37.6515 184.236 37.8548C184.547 38.0462 184.959 38.1419 185.474 38.1419C186.024 38.1419 186.61 38.0641 187.232 37.9087C187.866 37.7412 188.488 37.5319 189.098 37.2808C189.719 37.0296 190.323 36.7605 190.909 36.4735C191.495 36.1745 192.022 35.8934 192.488 35.6303C192.967 35.3672 193.361 35.14 193.672 34.9486C193.995 34.7573 194.21 34.6377 194.318 34.5898C194.426 34.5181 194.521 34.4762 194.605 34.4642C194.701 34.4523 194.784 34.4463 194.856 34.4463C195 34.4463 195.119 34.4822 195.215 34.5539C195.311 34.6137 195.388 34.6915 195.448 34.7872C195.52 34.8709 195.568 34.9666 195.592 35.0742C195.616 35.1699 195.628 35.2536 195.628 35.3253C195.628 35.433 195.616 35.5645 195.592 35.72C195.568 35.8635 195.478 36.031 195.323 36.2223C195.263 36.2821 195.06 36.4436 194.713 36.7067C194.378 36.9698 193.941 37.2808 193.403 37.6396C192.865 37.9984 192.237 38.3811 191.519 38.7877C190.814 39.1824 190.06 39.5471 189.259 39.882C188.47 40.2169 187.644 40.492 186.783 40.7072C185.922 40.9345 185.073 41.0481 184.236 41.0481C183.518 41.0481 182.878 40.9106 182.316 40.6355C181.766 40.3604 181.294 39.9897 180.899 39.5232C180.516 39.0568 180.223 38.5186 180.02 37.9087C179.817 37.2987 179.715 36.6589 179.715 35.9891C179.715 35.4748 179.817 34.9127 180.02 34.3028C180.223 33.6809 180.516 33.059 180.899 32.4371C181.282 31.8152 181.748 31.2112 182.298 30.6252C182.861 30.0272 183.488 29.5009 184.182 29.0465C184.876 28.592 185.635 28.2272 186.46 27.9521C187.298 27.6771 188.189 27.5395 189.133 27.5395Z" fill="black"/>
</svg>
