<svg width="24" height="18" viewBox="0 0 24 18" fill="none" xmlns="http://www.w3.org/2000/svg">
<path d="M5.8498 17.25C8.91499 17.25 11.3998 14.7652 11.3998 11.7C11.3998 8.83754 9.23279 6.48122 6.4498 6.18206L8.64608 2.73956C8.92097 2.30868 8.78231 1.73563 8.34082 1.4781L8.02304 1.29272C7.6366 1.0673 7.14325 1.15995 6.86492 1.51021L1.3498 8.45085C0.689184 9.3642 0.299805 10.4866 0.299805 11.7C0.299805 14.7652 2.78462 17.25 5.8498 17.25Z" fill="#C7C7CB"/>
<path d="M18.1501 17.25C21.2153 17.25 23.7001 14.7652 23.7001 11.7C23.7001 8.83754 21.5331 6.48122 18.7501 6.18206L20.9464 2.73956C21.2213 2.30868 21.0826 1.73563 20.6411 1.4781L20.3233 1.29272C19.9369 1.0673 19.4435 1.15995 19.1652 1.51021L13.6501 8.45085C12.9895 9.3642 12.6001 10.4866 12.6001 11.7C12.6001 14.7652 15.0849 17.25 18.1501 17.25Z" fill="#C7C7CB"/>
</svg>
